<?xml version="1.0" encoding="iso-8859-1"?>
<!-- Generator: Adobe Illustrator 19.0.0, SVG Export Plug-In . SVG Version: 6.00 Build 0)  -->
<svg xmlns="http://www.w3.org/2000/svg" xmlns:xlink="http://www.w3.org/1999/xlink" version="1.1" id="Layer_1" x="0px" y="0px" viewBox="0 0 512.014 512.014" style="enable-background:new 0 0 512.014 512.014;" xml:space="preserve" width="512px" height="512px">
<g>
	<g>
		<g>
			<path d="M446.99,65.021C403.974,22.013,343.37-1.736,281.281,0.099c-4.71,0.137-8.422,4.062-8.286,8.772     c0.128,4.71,4.113,8.653,8.764,8.286c57.651-1.621,113.451,20.224,153.165,59.93c39.706,39.697,61.551,95.531,59.938,153.173     c-0.137,4.71,3.575,8.636,8.286,8.764c0.085,0.009,0.162,0.009,0.247,0.009c4.599,0,8.397-3.669,8.525-8.294     C513.661,168.419,489.998,108.02,446.99,65.021z" fill="#FFFFFF"/>
			<path d="M451.931,239.024c0.085,0.009,0.171,0.009,0.265,0.009c4.591,0,8.388-3.652,8.525-8.277     c1.476-49.101-16.725-96.316-49.929-129.527c-32.503-32.495-79.778-50.688-129.399-49.929c-4.71,0.077-8.474,3.951-8.405,8.661     c0.077,4.668,3.883,8.405,8.533,8.405h0.128c45.372-0.776,87.817,15.684,117.077,44.928     c29.892,29.901,46.268,72.525,44.937,116.949C443.517,234.953,447.221,238.887,451.931,239.024z" fill="#FFFFFF"/>
			<path d="M281.52,119.566c19.072,0,54.955,3.883,80.998,29.935c26.052,26.052,29.935,61.926,29.935,80.998     c0,4.71,3.823,8.533,8.533,8.533c4.71,0,8.533-3.823,8.533-8.533c0-21.709-4.54-62.66-34.935-93.065     c-30.396-30.396-71.356-34.935-93.065-34.935c-4.71,0-8.533,3.823-8.533,8.533S276.81,119.566,281.52,119.566z" fill="#FFFFFF"/>
			<path d="M125.505,45.181c-12.288-12.305-29.346-13.03-40.798-8.303c-10.291,4.267-16.435,12.817-16.435,22.869v221.867     c0,2.261,0.896,4.437,2.5,6.033l128,128c3.336,3.336,8.73,3.336,12.066,0c3.337-3.337,3.337-8.73,0-12.066l-125.5-125.5V59.747     c0-4.045,3.703-6.187,5.905-7.1c6.17-2.551,15.787-1.801,22.195,4.599L454.773,398.58c6.767,6.775,7.219,16.213,4.77,22.118     c-0.922,2.236-3.098,5.982-7.27,5.982H230.406c-2.261,0-4.437,0.905-6.033,2.5l-62.234,62.234L20.605,349.88l36.634-36.634     c3.336-3.337,3.336-8.73,0-12.066c-3.337-3.336-8.73-3.336-12.066,0L2.506,343.847c-3.336,3.336-3.336,8.73,0,12.066l153.6,153.6     c1.664,1.664,3.849,2.5,6.033,2.5c2.185,0,4.369-0.836,6.033-2.5l65.766-65.766h218.334c10.138,0,18.756-6.178,23.04-16.521     c4.702-11.349,3.9-28.339-8.474-40.713L125.505,45.181z" fill="#FFFFFF"/>
		</g>
	</g>
</g>
<g>
</g>
<g>
</g>
<g>
</g>
<g>
</g>
<g>
</g>
<g>
</g>
<g>
</g>
<g>
</g>
<g>
</g>
<g>
</g>
<g>
</g>
<g>
</g>
<g>
</g>
<g>
</g>
<g>
</g>
</svg>
