<?xml version="1.0" encoding="UTF-8" standalone="no"?>
<!-- Generator: Adobe Illustrator 19.0.0, SVG Export Plug-In . SVG Version: 6.00 Build 0)  -->

<svg
   xmlns:dc="http://purl.org/dc/elements/1.1/"
   xmlns:cc="http://creativecommons.org/ns#"
   xmlns:rdf="http://www.w3.org/1999/02/22-rdf-syntax-ns#"
   xmlns:svg="http://www.w3.org/2000/svg"
   xmlns="http://www.w3.org/2000/svg"
   xmlns:sodipodi="http://sodipodi.sourceforge.net/DTD/sodipodi-0.dtd"
   xmlns:inkscape="http://www.inkscape.org/namespaces/inkscape"
   version="1.1"
   id="Capa_1"
   x="0px"
   y="0px"
   viewBox="0 0 0.93693356 0.93693356"
   xml:space="preserve"
   width="10"
   height="10"
   inkscape:version="0.91 r13725"
   sodipodi:docname="cerrar.svg"><metadata
     id="metadata3505"><rdf:RDF><cc:Work
         rdf:about=""><dc:format>image/svg+xml</dc:format><dc:type
           rdf:resource="http://purl.org/dc/dcmitype/StillImage" /><dc:title></dc:title></cc:Work></rdf:RDF></metadata><defs
     id="defs3503" /><sodipodi:namedview
     pagecolor="#ffffff"
     bordercolor="#666666"
     borderopacity="1"
     objecttolerance="10"
     gridtolerance="10"
     guidetolerance="10"
     inkscape:pageopacity="0"
     inkscape:pageshadow="2"
     inkscape:window-width="1920"
     inkscape:window-height="993"
     id="namedview3501"
     showgrid="false"
     inkscape:zoom="17.987029"
     inkscape:cx="18.506738"
     inkscape:cy="3.1096221"
     inkscape:window-x="0"
     inkscape:window-y="24"
     inkscape:window-maximized="1"
     inkscape:current-layer="Capa_1" /><g
     id="g3471"
     transform="translate(0,-47.034067)" /><g
     id="g3473"
     transform="translate(0,-47.034067)" /><g
     id="g3475"
     transform="translate(0,-47.034067)" /><g
     id="g3477"
     transform="translate(0,-47.034067)" /><g
     id="g3479"
     transform="translate(0,-47.034067)" /><g
     id="g3481"
     transform="translate(0,-47.034067)" /><g
     id="g3483"
     transform="translate(0,-47.034067)" /><g
     id="g3485"
     transform="translate(0,-47.034067)" /><g
     id="g3487"
     transform="translate(0,-47.034067)" /><g
     id="g3489"
     transform="translate(0,-47.034067)" /><g
     id="g3491"
     transform="translate(0,-47.034067)" /><g
     id="g3493"
     transform="translate(0,-47.034067)" /><g
     id="g3495"
     transform="translate(0,-47.034067)" /><g
     id="g3497"
     transform="translate(0,-47.034067)" /><g
     id="g3499"
     transform="translate(0,-47.034067)" /><g
     id="g3548"
     transform="matrix(0.00268976,0,0,0.00268978,0.00679722,0.00288442)"><g
       id="g3508"><path
         id="path3510"
         d="M 336.559,68.611 231.016,174.165 336.559,279.714 c 15.699,15.705 15.699,41.145 0,56.85 -7.844,7.844 -18.128,11.769 -28.407,11.769 -10.296,0 -20.581,-3.919 -28.419,-11.769 L 174.167,231.003 68.609,336.563 c -7.843,7.844 -18.128,11.769 -28.416,11.769 -10.285,0 -20.563,-3.919 -28.413,-11.769 -15.699,-15.698 -15.699,-41.139 0,-56.85 L 117.32,174.164 11.774,68.611 C -3.925,52.912 -3.925,27.466 11.774,11.767 27.47,-3.92 52.901,-3.92 68.603,11.767 L 174.166,117.321 279.721,11.767 c 15.705,-15.687 41.139,-15.687 56.832,0 15.705,15.699 15.705,41.145 0.006,56.844 z"
         inkscape:connector-curvature="0"
         style="fill:#ffffff" /></g><g
       id="g3512" /><g
       id="g3514" /><g
       id="g3516" /><g
       id="g3518" /><g
       id="g3520" /><g
       id="g3522" /><g
       id="g3524" /><g
       id="g3526" /><g
       id="g3528" /><g
       id="g3530" /><g
       id="g3532" /><g
       id="g3534" /><g
       id="g3536" /><g
       id="g3538" /><g
       id="g3540" /></g></svg>