<?xml version="1.0" encoding="UTF-8" standalone="no"?>
<!-- Generator: Adobe Illustrator 19.0.0, SVG Export Plug-In . SVG Version: 6.00 Build 0)  -->

<svg
   xmlns:dc="http://purl.org/dc/elements/1.1/"
   xmlns:cc="http://creativecommons.org/ns#"
   xmlns:rdf="http://www.w3.org/1999/02/22-rdf-syntax-ns#"
   xmlns:svg="http://www.w3.org/2000/svg"
   xmlns="http://www.w3.org/2000/svg"
   xmlns:sodipodi="http://sodipodi.sourceforge.net/DTD/sodipodi-0.dtd"
   xmlns:inkscape="http://www.inkscape.org/namespaces/inkscape"
   version="1.1"
   id="Layer_1"
   x="0px"
   y="0px"
   viewBox="0 0 465.486 465.486"
   style="enable-background:new 0 0 465.486 465.486;"
   xml:space="preserve"
   width="512px"
   height="512px"
   inkscape:version="0.91 r13725"
   sodipodi:docname="ciudadania_c.svg"><metadata
     id="metadata47"><rdf:RDF><cc:Work
         rdf:about=""><dc:format>image/svg+xml</dc:format><dc:type
           rdf:resource="http://purl.org/dc/dcmitype/StillImage" /><dc:title></dc:title></cc:Work></rdf:RDF></metadata><defs
     id="defs45" /><sodipodi:namedview
     pagecolor="#ffffff"
     bordercolor="#666666"
     borderopacity="1"
     objecttolerance="10"
     gridtolerance="10"
     guidetolerance="10"
     inkscape:pageopacity="0"
     inkscape:pageshadow="2"
     inkscape:window-width="1920"
     inkscape:window-height="993"
     id="namedview43"
     showgrid="false"
     inkscape:zoom="0.65186406"
     inkscape:cx="-186.97413"
     inkscape:cy="206.79097"
     inkscape:window-x="0"
     inkscape:window-y="24"
     inkscape:window-maximized="1"
     inkscape:current-layer="g7" /><g
     id="g3"><g
       id="g5"><g
         id="g7"
         style="fill:#ff00ff"><path
           d="m 456.13046,430.51554 c 0,-4.81404 -3.93878,-8.74191 -8.75281,-8.75281 L 110.4019,420.99976 c -3.06349,-0.007 -4.81405,-1.75056 -5.68933,-2.62584 -1.31292,-1.75056 -1.75056,-4.37641 -1.31292,-6.12697 l 18.3809,-63.89552 c 8.75282,-30.1972 32.82305,-53.8298 63.45789,-61.70733 l 5.25168,-1.31292 c 1.75057,-0.43764 3.50113,0.43764 4.81405,1.75056 24.07023,27.57136 53.82979,29.75956 82.71407,29.75956 28.88428,0 58.64384,-2.1882 82.71407,-29.75956 1.31292,-1.31292 3.06348,-2.1882 5.25169,-1.75056 l 5.25168,1.31292 c 30.1972,7.87753 54.70507,31.51013 63.45789,61.70733 l 7.87753,27.13371 c 1.31292,4.81405 6.12696,7.43989 10.94101,6.12697 4.81405,-1.31292 7.43989,-6.12697 6.12697,-10.94102 l -7.87753,-27.13371 C 441.25817,307.21321 412.3739,279.20421 375.61209,269.57612 l -5.68933,-1.31292 c -7.87753,-2.1882 -16.63034,0.43764 -22.31967,7.00225 -19.25618,21.88203 -43.76406,23.63259 -69.58485,23.63259 -25.82079,0 -50.32867,-1.75056 -69.58485,-23.63259 -5.68933,-6.56461 -14.44214,-9.19045 -22.31967,-7.00225 l -5.25169,1.31292 c -36.32417,9.62809 -65.20844,37.63709 -75.71182,73.96126 l -7.439888,25.38315 -70.460172,0 c -1.750562,0 -2.625843,-0.87528 -3.063484,-1.31292 -0.437641,-0.43764 -1.312922,-1.75056 -0.875281,-3.50112 l 14.442139,-51.20395 c 12.253936,-40.70057 38.074726,-53.82979 84.464666,-64.77081 0.87529,0 1.31293,-0.43764 2.18821,-0.87528 3.06348,2.18821 6.56461,4.37641 9.62809,6.12697 1.31292,0.87528 2.62584,0.87528 3.93877,0.87528 3.06348,0 6.12696,-1.75056 7.87753,-4.81404 2.1882,-4.37641 0.43764,-9.6281 -3.50113,-11.8163 -25.82079,-13.12922 -44.639338,-51.20395 -44.639338,-90.15396 0,-35.44889 28.446638,-63.895488 63.895528,-63.895488 10.50337,0 20.13146,2.625843 29.75956,7.439888 -5.25169,12.2539 -8.31518,25.82076 -8.31518,39.82526 0,74.83654 45.07698,137.85678 98.90677,137.85678 52.51687,0 98.90677,-64.33316 98.90677,-137.85678 0,-54.705038 -44.20169,-98.906736 -98.90677,-98.906736 -34.13596,0 -64.33316,17.505623 -82.27642,43.764058 l -0.43764,-0.437641 c -11.8163,-6.126968 -24.50788,-9.190452 -37.63709,-9.190452 -45.07698,0 -81.401184,36.324131 -81.401184,81.401111 0,32.82304 11.378677,64.33317 29.321954,85.33991 -39.825334,10.06574 -73.086018,24.94552 -88.403438,74.83654 L 6.681043,359.29244 c -1.7505623,6.56461 -0.4376406,13.56686 3.938765,18.81854 3.938765,5.25169 10.065733,8.31518 16.630342,8.31518 l 65.208474,0 -6.126973,21.00674 c -1.750568,7.43989 -0.437641,15.31742 4.376411,21.44439 4.814057,6.12697 11.816318,9.61124 19.256198,9.62809 l 336.97575,0.76298 c 5.25167,0.0119 9.19045,-3.93877 9.19045,-8.75282 z M 281.957,49.442947 c 36.32417,0 66.95901,24.070232 77.46239,56.893243 -15.31742,3.06348 -31.51012,-3.06349 -41.13822,-16.192672 -3.06348,-3.938763 -8.31517,-4.814044 -12.25393,-1.750562 -1.75057,1.312922 -2.62585,2.625844 -3.06349,4.376395 -0.43764,0.437641 -0.43764,0.875281 -0.87528,1.312922 -12.25394,24.945487 -53.39215,35.448867 -100.65733,26.258417 5.25169,-39.825262 39.38765,-70.897743 80.52586,-70.897743 z m -47.70282,91.466843 c 35.01125,0 63.89553,-10.94101 78.77531,-31.51012 10.94101,9.62809 24.50787,14.87978 38.95001,14.87978 3.50112,0 7.43989,-0.43764 10.94101,-1.31292 0.43764,2.62584 0.43764,4.81405 0.43764,7.43989 0,64.33316 -38.07473,120.7888 -81.40115,120.7888 -41.57585,0 -78.7753,-52.07923 -81.40114,-113.34891 11.81629,2.1882 22.75731,3.06348 33.69832,3.06348 z"
           id="path11"
           style="fill:#300024;fill-opacity:1"
           inkscape:connector-curvature="0"
           sodipodi:nodetypes="sssccccscscccccscccccscccccsscccccsccsscssssccssccccsccsssssccccccsscscsscs" /></g></g></g><g
     id="g13" /><g
     id="g15" /><g
     id="g17" /><g
     id="g19" /><g
     id="g21" /><g
     id="g23" /><g
     id="g25" /><g
     id="g27" /><g
     id="g29" /><g
     id="g31" /><g
     id="g33" /><g
     id="g35" /><g
     id="g37" /><g
     id="g39" /><g
     id="g41" /></svg>