<?xml version="1.0" encoding="UTF-8" standalone="no"?>
<!-- Generator: Adobe Illustrator 19.0.0, SVG Export Plug-In . SVG Version: 6.00 Build 0)  -->

<svg
   xmlns:dc="http://purl.org/dc/elements/1.1/"
   xmlns:cc="http://creativecommons.org/ns#"
   xmlns:rdf="http://www.w3.org/1999/02/22-rdf-syntax-ns#"
   xmlns:svg="http://www.w3.org/2000/svg"
   xmlns="http://www.w3.org/2000/svg"
   xmlns:sodipodi="http://sodipodi.sourceforge.net/DTD/sodipodi-0.dtd"
   xmlns:inkscape="http://www.inkscape.org/namespaces/inkscape"
   version="1.1"
   id="Layer_1"
   x="0px"
   y="0px"
   viewBox="0 0 465.486 465.486"
   style="enable-background:new 0 0 465.486 465.486;"
   xml:space="preserve"
   width="512px"
   height="512px"
   inkscape:version="0.91 r13725"
   sodipodi:docname="ciudadania.svg"><metadata
     id="metadata47"><rdf:RDF><cc:Work
         rdf:about=""><dc:format>image/svg+xml</dc:format><dc:type
           rdf:resource="http://purl.org/dc/dcmitype/StillImage" /></cc:Work></rdf:RDF></metadata><defs
     id="defs45" /><sodipodi:namedview
     pagecolor="#ffffff"
     bordercolor="#666666"
     borderopacity="1"
     objecttolerance="10"
     gridtolerance="10"
     guidetolerance="10"
     inkscape:pageopacity="0"
     inkscape:pageshadow="2"
     inkscape:window-width="1920"
     inkscape:window-height="993"
     id="namedview43"
     showgrid="false"
     inkscape:zoom="0.65186406"
     inkscape:cx="165.09314"
     inkscape:cy="206.79097"
     inkscape:window-x="0"
     inkscape:window-y="24"
     inkscape:window-maximized="1"
     inkscape:current-layer="g7" /><g
     id="g3"><g
       id="g5"><g
         id="g7"
         style="fill:#ff00ff"><path
           d="m 436.93545,413.7515 c 0,-4.4 -3.60001,-7.99004 -8,-8 L 120.9423,405.05415 c -2.8,-0.006 -4.4,-1.6 -5.2,-2.4 -1.2,-1.6 -1.6,-4 -1.2,-5.6 l 16.8,-58.4 c 8,-27.6 30,-49.2 58,-56.4 l 4.8,-1.2 c 1.6,-0.4 3.2,0.4 4.4,1.6 22,25.2 49.2,27.2 75.6,27.2 26.4,0 53.6,-2 75.6,-27.2 1.2,-1.2 2.8,-2 4.8,-1.6 l 4.8,1.2 c 27.6,7.2 50,28.8 58,56.4 l 7.2,24.8 c 1.2,4.4 5.6,6.8 10,5.6 4.4,-1.2 6.8,-5.6 5.6,-10 l -7.2,-24.8 c -9.6,-33.2 -36,-58.8 -69.6,-67.6 l -5.2,-1.2 c -7.2,-2 -15.2,0.4 -20.4,6.4 -17.6,20 -40,21.6 -63.6,21.6 -23.6,0 -46,-1.6 -63.6,-21.6 -5.2,-6 -13.2,-8.4 -20.4,-6.4 l -4.8,1.2 c -33.2,8.8 -59.6,34.4 -69.2,67.6 l -6.8,23.2 -64.400036,0 c -1.6,0 -2.4,-0.8 -2.8,-1.2 -0.4,-0.4 -1.2,-1.6 -0.8,-3.2 l 13.2,-46.8 c 11.2,-37.2 34.799996,-49.2 77.200036,-59.2 0.8,0 1.2,-0.4 2,-0.8 2.8,2 6,4 8.8,5.6 1.2,0.8 2.4,0.8 3.6,0.8 2.8,0 5.6,-1.6 7.2,-4.4 2,-4 0.4,-8.8 -3.2,-10.8 -23.6,-12 -40.8,-46.8 -40.8,-82.4 0,-32.4 26,-58.399968 58.4,-58.399968 9.6,0 18.4,2.4 27.2,6.799998 -4.8,11.19997 -7.6,23.59997 -7.6,36.39997 0,68.4 41.2,126 90.4,126 48,0 90.4,-58.8 90.4,-126 0,-49.999968 -40.4,-90.399968 -90.4,-90.399968 -31.2,0 -58.8,16 -75.2,40 l -0.4,-0.4 c -10.8,-5.6 -22.4,-8.4 -34.4,-8.4 -41.2,0 -74.40003,33.199968 -74.40003,74.399968 0,30 10.40002,58.8 26.80003,78 -36.400036,9.2 -66.800036,22.8 -80.800036,68.4 l -13.2,47.2 c -1.6,6 -0.4,12.4 3.6,17.2 3.6,4.8 9.2,7.6 15.2,7.6 l 59.600026,0 -5.600005,19.2 c -1.600005,6.8 -0.4,14 4.000005,19.6 4.40001,5.6 10.80002,8.7846 17.60001,8.8 l 307.99315,0.69735 c 4.79999,0.0109 8.4,-3.6 8.4,-8 z M 277.7423,65.454182 c 33.2,0 61.2,22 70.8,51.999968 -14,2.8 -28.8,-2.8 -37.6,-14.79997 -2.8,-3.599998 -7.6,-4.399998 -11.2,-1.6 -1.6,1.2 -2.4,2.4 -2.8,3.99999 -0.4,0.4 -0.4,0.8 -0.8,1.2 -11.2,22.79998 -48.8,32.39998 -92,23.99998 4.8,-36.399968 36,-64.799968 73.6,-64.799968 z m -43.6,83.599968 c 32,0 58.4,-10 72,-28.8 10,8.8 22.4,13.6 35.6,13.6 3.2,0 6.8,-0.4 10,-1.2 0.4,2.4 0.4,4.4 0.4,6.8 0,58.8 -34.8,110.4 -74.4,110.4 -38,0 -72,-47.6 -74.4,-103.6 10.8,2 20.8,2.8 30.8,2.8 z"
           id="path11"
           style="fill:#ffffff"
           inkscape:connector-curvature="0"
           sodipodi:nodetypes="sssccccscscccccscccccscccccsscccccsccsscssssccssccccsccsssssccccccsscscsscs" /></g></g></g><g
     id="g13" /><g
     id="g15" /><g
     id="g17" /><g
     id="g19" /><g
     id="g21" /><g
     id="g23" /><g
     id="g25" /><g
     id="g27" /><g
     id="g29" /><g
     id="g31" /><g
     id="g33" /><g
     id="g35" /><g
     id="g37" /><g
     id="g39" /><g
     id="g41" /></svg>