<?xml version="1.0" encoding="UTF-8" standalone="no"?>
<svg
   xmlns:dc="http://purl.org/dc/elements/1.1/"
   xmlns:cc="http://creativecommons.org/ns#"
   xmlns:rdf="http://www.w3.org/1999/02/22-rdf-syntax-ns#"
   xmlns:svg="http://www.w3.org/2000/svg"
   xmlns="http://www.w3.org/2000/svg"
   xmlns:sodipodi="http://sodipodi.sourceforge.net/DTD/sodipodi-0.dtd"
   xmlns:inkscape="http://www.inkscape.org/namespaces/inkscape"
   version="1.1"
   viewBox="0 0 512 512"
   enable-background="new 0 0 512 512"
   width="512px"
   height="512px"
   id="svg2"
   inkscape:version="0.91 r13725"
   sodipodi:docname="comunicacion_c.svg">
  <metadata
     id="metadata16">
    <rdf:RDF>
      <cc:Work
         rdf:about="">
        <dc:format>image/svg+xml</dc:format>
        <dc:type
           rdf:resource="http://purl.org/dc/dcmitype/StillImage" />
        <dc:title></dc:title>
      </cc:Work>
    </rdf:RDF>
  </metadata>
  <defs
     id="defs14" />
  <sodipodi:namedview
     pagecolor="#ffffff"
     bordercolor="#666666"
     borderopacity="1"
     objecttolerance="10"
     gridtolerance="10"
     guidetolerance="10"
     inkscape:pageopacity="0"
     inkscape:pageshadow="2"
     inkscape:window-width="1920"
     inkscape:window-height="993"
     id="namedview12"
     showgrid="false"
     inkscape:zoom="0.4609375"
     inkscape:cx="256"
     inkscape:cy="256"
     inkscape:window-x="0"
     inkscape:window-y="24"
     inkscape:window-maximized="1"
     inkscape:current-layer="svg2" />
  <g
     id="g4"
     style="fill:#300024;fill-opacity:1">
    <g
       id="g6"
       style="fill:#300024;fill-opacity:1">
      <path
         d="m391.5,104.8v146c0,75.1-60.5,135.5-135.5,135.5s-135.5-60.5-135.5-135.5v-146h-20.9v146c0,83 64.3,150.7 146,156v73.3h-52.1v20.9h125.1v-20.9h-52.1v-73.3c81.6-5.3 146-73 146-156v-146h-21z"
         fill="#FFFFFF"
         id="path8"
         style="fill:#300024;fill-opacity:1" />
      <path
         d="m256,344.6c52.1,0 93.8-41.7 93.8-93.8v-146c0-52.1-41.7-93.8-93.8-93.8s-93.8,41.7-93.8,93.8v146c0,52.1 41.7,93.8 93.8,93.8zm-73-166.8h41.7v-20.8h-41.7v-49h41.7v-20.9h-39.6c7.8-31.9 36.3-55.3 70.8-55.3s63,23.3 70.8,55.3h-39.6v20.9h41.9v49h-41.7v20.9h41.7v73c0,40.7-32.3,73-73,73s-73-32.3-73-73v-73.1z"
         fill="#FFFFFF"
         id="path10"
         style="fill:#300024;fill-opacity:1" />
    </g>
  </g>
</svg>
