<?xml version="1.0" encoding="UTF-8" standalone="no"?>
<!-- Generator: Adobe Illustrator 19.0.0, SVG Export Plug-In . SVG Version: 6.00 Build 0)  -->

<svg
   xmlns:dc="http://purl.org/dc/elements/1.1/"
   xmlns:cc="http://creativecommons.org/ns#"
   xmlns:rdf="http://www.w3.org/1999/02/22-rdf-syntax-ns#"
   xmlns:svg="http://www.w3.org/2000/svg"
   xmlns="http://www.w3.org/2000/svg"
   xmlns:sodipodi="http://sodipodi.sourceforge.net/DTD/sodipodi-0.dtd"
   xmlns:inkscape="http://www.inkscape.org/namespaces/inkscape"
   version="1.1"
   id="Capa_1"
   x="0px"
   y="0px"
   viewBox="0 0 55 55"
   style="enable-background:new 0 0 55 55;"
   xml:space="preserve"
   width="512px"
   height="512px"
   inkscape:version="0.91 r13725"
   sodipodi:docname="datos-libres_c.svg"><metadata
     id="metadata83"><rdf:RDF><cc:Work
         rdf:about=""><dc:format>image/svg+xml</dc:format><dc:type
           rdf:resource="http://purl.org/dc/dcmitype/StillImage" /></cc:Work></rdf:RDF></metadata><defs
     id="defs81" /><sodipodi:namedview
     pagecolor="#ffffff"
     bordercolor="#666666"
     borderopacity="1"
     objecttolerance="10"
     gridtolerance="10"
     guidetolerance="10"
     inkscape:pageopacity="0"
     inkscape:pageshadow="2"
     inkscape:window-width="1920"
     inkscape:window-height="993"
     id="namedview79"
     showgrid="false"
     inkscape:zoom="0.4609375"
     inkscape:cx="256"
     inkscape:cy="256"
     inkscape:window-x="0"
     inkscape:window-y="24"
     inkscape:window-maximized="1"
     inkscape:current-layer="Capa_1" /><g
     id="g3"
     transform="matrix(0.83220338,0,0,0.83220338,4.6144069,4.6144069)"><circle
       cx="7.5"
       cy="29"
       r="1"
       id="circle5"
       style="fill:#300024" /><circle
       cx="7.5"
       cy="35"
       r="1"
       id="circle7"
       style="fill:#300024" /><circle
       cx="10.5"
       cy="32"
       r="1"
       id="circle9"
       style="fill:#300024" /><circle
       cx="16.5"
       cy="32"
       r="1"
       id="circle11"
       style="fill:#300024" /><circle
       cx="13.5"
       cy="35"
       r="1"
       id="circle13"
       style="fill:#300024" /><circle
       cx="19.5"
       cy="35"
       r="1"
       id="circle15"
       style="fill:#300024" /><circle
       cx="22.5"
       cy="32"
       r="1"
       id="circle17"
       style="fill:#300024" /><circle
       cx="28.5"
       cy="32"
       r="1"
       id="circle19"
       style="fill:#300024" /><circle
       cx="25.5"
       cy="35"
       r="1"
       id="circle21"
       style="fill:#300024" /><circle
       cx="31.5"
       cy="35"
       r="1"
       id="circle23"
       style="fill:#300024" /><circle
       cx="34.5"
       cy="32"
       r="1"
       id="circle25"
       style="fill:#300024" /><circle
       cx="40.5"
       cy="32"
       r="1"
       id="circle27"
       style="fill:#300024" /><circle
       cx="37.5"
       cy="35"
       r="1"
       id="circle29"
       style="fill:#300024" /><circle
       cx="43.5"
       cy="35"
       r="1"
       id="circle31"
       style="fill:#300024" /><circle
       cx="46.5"
       cy="32"
       r="1"
       id="circle33"
       style="fill:#300024" /><circle
       cx="49.5"
       cy="29"
       r="1"
       id="circle35"
       style="fill:#300024" /><circle
       cx="16.5"
       cy="38"
       r="1"
       id="circle37"
       style="fill:#300024" /><circle
       cx="22.5"
       cy="38"
       r="1"
       id="circle39"
       style="fill:#300024" /><circle
       cx="28.5"
       cy="38"
       r="1"
       id="circle41"
       style="fill:#300024" /><circle
       cx="34.5"
       cy="38"
       r="1"
       id="circle43"
       style="fill:#300024" /><circle
       cx="40.5"
       cy="38"
       r="1"
       id="circle45"
       style="fill:#300024" /><path
       d="M 52.43,8.652 C 52.421,8.627 52.412,8.603 52.401,8.58 52.391,8.559 52.386,8.536 52.375,8.516 51.156,3.639 40.607,0 27.5,0 14.393,0 3.844,3.639 2.625,8.516 2.614,8.536 2.609,8.559 2.599,8.58 2.588,8.604 2.579,8.627 2.57,8.652 2.529,8.761 2.5,8.876 2.5,9 l 0,0.5 0,23.5 0,0.5 0,12.5 c 0,0.162 0.043,0.315 0.117,0.451 C 3.798,51.346 14.364,55 27.5,55 40.606,55 51.155,51.361 52.375,46.484 52.455,46.341 52.5,46.176 52.5,46 l 0,-12.5 0,-0.5 0,-23.5 0,-0.5 C 52.5,8.876 52.471,8.761 52.43,8.652 Z M 47.132,37.243 C 46.959,37.098 46.744,37 46.5,37 c -0.552,0 -1,0.448 -1,1 0,0.011 0.006,0.02 0.006,0.031 -2.005,0.847 -4.567,1.572 -7.544,2.097 C 37.822,40.053 37.67,40 37.5,40 c -0.294,0 -0.551,0.132 -0.734,0.333 -1.357,0.206 -2.795,0.369 -4.303,0.482 C 32.374,40.355 31.987,40 31.5,40 30.974,40 30.555,40.41 30.515,40.926 29.532,40.97 28.533,41 27.5,41 27.159,41 26.832,40.987 26.496,40.982 26.486,40.438 26.046,40 25.5,40 24.973,40 24.554,40.411 24.515,40.928 23.097,40.865 21.726,40.764 20.424,40.619 20.273,40.256 19.917,40 19.5,40 19.178,40 18.905,40.162 18.722,40.398 15.85,39.989 13.322,39.395 11.225,38.68 11.393,38.501 11.5,38.264 11.5,38 c 0,-0.552 -0.448,-1 -1,-1 -0.552,0 -1,0.448 -1,1 0,0.013 0.007,0.023 0.007,0.036 C 6.32,36.691 4.5,35.057 4.5,33.5 4.5,33.387 4.513,33.274 4.531,33.162 4.54,33.106 4.522,33.051 4.522,32.995 5.064,32.983 5.5,32.544 5.5,32 c 0,-0.552 -0.448,-1 -1,-1 l 0,-4 c 0.527,0 0.946,-0.411 0.985,-0.928 1.728,1.223 4.131,2.275 7.047,3.089 0.08,0.472 0.473,0.839 0.968,0.839 0.32,0 0.591,-0.16 0.774,-0.393 C 18.097,30.493 22.619,31 27.5,31 c 5.674,0 10.863,-0.685 15.029,-1.854 0.074,0.48 0.47,0.854 0.971,0.854 0.552,0 1,-0.448 1,-1 0,-0.156 -0.043,-0.299 -0.106,-0.43 2.62,-0.899 4.702,-2.015 6.106,-3.279 l 0,3.709 0,3.717 c -0.042,0.143 -0.056,0.294 -0.031,0.445 0.019,0.112 0.031,0.225 0.031,0.338 0,0.298 -0.09,0.599 -0.221,0.9 C 50.097,34.163 49.823,34 49.5,34 c -0.552,0 -1,0.448 -1,1 0,0.408 0.246,0.756 0.596,0.911 -0.52,0.458 -1.176,0.904 -1.964,1.332 z M 50.5,21.747 c -0.008,0.031 -0.027,0.058 -0.032,0.091 C 49.901,25.297 40.536,29 27.5,29 14.464,29 5.099,25.297 4.532,21.838 4.527,21.805 4.508,21.779 4.5,21.747 l 0,-8.479 C 7.931,16.431 15.744,19 27.5,19 c 11.756,0 19.569,-2.569 23,-5.732 l 0,8.479 z M 27.5,2 c 13.038,0 22.402,3.703 22.968,7.161 l 10e-4,0.006 C 50.487,9.278 50.5,9.388 50.5,9.5 50.5,13.048 41.055,17 27.5,17 13.945,17 4.5,13.048 4.5,9.5 4.5,9.388 4.513,9.278 4.531,9.167 L 4.532,9.161 C 5.098,5.703 14.462,2 27.5,2 Z M 50.468,45.838 C 49.901,49.297 40.536,53 27.5,53 14.464,53 5.099,49.297 4.532,45.838 4.524,45.793 4.513,45.749 4.5,45.707 l 0,-8.439 C 7.931,40.431 15.744,43 27.5,43 c 11.756,0 19.569,-2.569 23,-5.732 l 0,8.435 c -0.014,0.044 -0.024,0.089 -0.032,0.135 z"
       id="path47"
       inkscape:connector-curvature="0"
       style="fill:#300024" /></g><g
     id="g49" /><g
     id="g51" /><g
     id="g53" /><g
     id="g55" /><g
     id="g57" /><g
     id="g59" /><g
     id="g61" /><g
     id="g63" /><g
     id="g65" /><g
     id="g67" /><g
     id="g69" /><g
     id="g71" /><g
     id="g73" /><g
     id="g75" /><g
     id="g77" /></svg>