<?xml version="1.0" encoding="UTF-8" standalone="no"?>
<!-- Generator: Adobe Illustrator 19.0.0, SVG Export Plug-In . SVG Version: 6.00 Build 0)  -->

<svg
   xmlns:dc="http://purl.org/dc/elements/1.1/"
   xmlns:cc="http://creativecommons.org/ns#"
   xmlns:rdf="http://www.w3.org/1999/02/22-rdf-syntax-ns#"
   xmlns:svg="http://www.w3.org/2000/svg"
   xmlns="http://www.w3.org/2000/svg"
   xmlns:sodipodi="http://sodipodi.sourceforge.net/DTD/sodipodi-0.dtd"
   xmlns:inkscape="http://www.inkscape.org/namespaces/inkscape"
   version="1.1"
   id="Layer_1"
   x="0px"
   y="0px"
   viewBox="0 0 384 384"
   style="enable-background:new 0 0 384 384;"
   xml:space="preserve"
   width="512px"
   height="512px"
   inkscape:version="0.91 r13725"
   sodipodi:docname="doc_c.svg"><metadata
     id="metadata55"><rdf:RDF><cc:Work
         rdf:about=""><dc:format>image/svg+xml</dc:format><dc:type
           rdf:resource="http://purl.org/dc/dcmitype/StillImage" /><dc:title></dc:title></cc:Work></rdf:RDF></metadata><defs
     id="defs53" /><sodipodi:namedview
     pagecolor="#ffffff"
     bordercolor="#666666"
     borderopacity="1"
     objecttolerance="10"
     gridtolerance="10"
     guidetolerance="10"
     inkscape:pageopacity="0"
     inkscape:pageshadow="2"
     inkscape:window-width="1920"
     inkscape:window-height="993"
     id="namedview51"
     showgrid="false"
     inkscape:zoom="0.4609375"
     inkscape:cx="256"
     inkscape:cy="256"
     inkscape:window-x="0"
     inkscape:window-y="24"
     inkscape:window-maximized="1"
     inkscape:current-layer="Layer_1" /><g
     id="g3"
     style="fill:#300024;fill-opacity:1"><g
       id="g5"
       style="fill:#300024;fill-opacity:1"><g
         id="g7"
         style="fill:#300024;fill-opacity:1"><path
           d="M304,0H80C58,0,40,18,40,40v304c0,22,18,40,40,40h122.8c10.8,0,21.2-4,28.4-11.6l101.2-101.2     c7.2-7.2,11.6-17.6,11.6-28.4V40C344,18,326,0,304,0z M321.2,260L220,361.2c-1.2,1.2-2.4,2.4-4,3.2V280c0-13.2,10.8-24,24-24     h84.4C323.6,257.6,322.4,258.8,321.2,260z M328,240h-88c-22,0-40,18-40,40v88H80c-13.2,0-24-10.8-24-24V40c0-13.2,10.8-24,24-24     h224c13.2,0,24,10.8,24,24V240z"
           fill="#FFFFFF"
           id="path9"
           style="fill:#300024;fill-opacity:1" /><path
           d="M108,96h140c4.4,0,8-3.6,8-8c0-4.4-3.6-8-8-8H108c-4.4,0-8,3.6-8,8C100,92.4,103.6,96,108,96z"
           fill="#FFFFFF"
           id="path11"
           style="fill:#300024;fill-opacity:1" /><path
           d="M108,144h56c4.4,0,8-3.6,8-8c0-4.4-3.6-8-8-8h-56c-4.4,0-8,3.6-8,8C100,140.4,103.6,144,108,144z"
           fill="#FFFFFF"
           id="path13"
           style="fill:#300024;fill-opacity:1" /><path
           d="M200,128c-4.4,0-8,3.6-8,8c0,4.4,3.6,8,8,8h12c4.4,0,8-3.6,8-8c0-4.4-3.6-8-8-8H200z"
           fill="#FFFFFF"
           id="path15"
           style="fill:#300024;fill-opacity:1" /><path
           d="M140,224h-32c-4.4,0-8,3.6-8,8c0,4.4,3.6,8,8,8h32c4.4,0,8-3.6,8-8C148,227.6,144.4,224,140,224z"
           fill="#FFFFFF"
           id="path17"
           style="fill:#300024;fill-opacity:1" /><path
           d="M260,176H108c-4.4,0-8,3.6-8,8c0,4.4,3.6,8,8,8h152c4.4,0,8-3.6,8-8C268,179.6,264.4,176,260,176z"
           fill="#FFFFFF"
           id="path19"
           style="fill:#300024;fill-opacity:1" /></g></g></g><g
     id="g21" /><g
     id="g23" /><g
     id="g25" /><g
     id="g27" /><g
     id="g29" /><g
     id="g31" /><g
     id="g33" /><g
     id="g35" /><g
     id="g37" /><g
     id="g39" /><g
     id="g41" /><g
     id="g43" /><g
     id="g45" /><g
     id="g47" /><g
     id="g49" /></svg>