<?xml version="1.0" encoding="UTF-8" standalone="no"?>
<!-- Generator: Adobe Illustrator 19.1.0, SVG Export Plug-In . SVG Version: 6.00 Build 0)  -->

<svg
   xmlns:dc="http://purl.org/dc/elements/1.1/"
   xmlns:cc="http://creativecommons.org/ns#"
   xmlns:rdf="http://www.w3.org/1999/02/22-rdf-syntax-ns#"
   xmlns:svg="http://www.w3.org/2000/svg"
   xmlns="http://www.w3.org/2000/svg"
   xmlns:sodipodi="http://sodipodi.sourceforge.net/DTD/sodipodi-0.dtd"
   xmlns:inkscape="http://www.inkscape.org/namespaces/inkscape"
   version="1.1"
   id="Capa_1"
   x="0px"
   y="0px"
   viewBox="0 0 333.668 333.668"
   style="enable-background:new 0 0 333.668 333.668;"
   xml:space="preserve"
   width="512px"
   height="512px"
   inkscape:version="0.91 r13725"
   sodipodi:docname="fotos_c.svg"><metadata
     id="metadata41"><rdf:RDF><cc:Work
         rdf:about=""><dc:format>image/svg+xml</dc:format><dc:type
           rdf:resource="http://purl.org/dc/dcmitype/StillImage" /><dc:title></dc:title></cc:Work></rdf:RDF></metadata><defs
     id="defs39" /><sodipodi:namedview
     pagecolor="#ffffff"
     bordercolor="#666666"
     borderopacity="1"
     objecttolerance="10"
     gridtolerance="10"
     guidetolerance="10"
     inkscape:pageopacity="0"
     inkscape:pageshadow="2"
     inkscape:window-width="1920"
     inkscape:window-height="993"
     id="namedview37"
     showgrid="false"
     inkscape:zoom="0.4609375"
     inkscape:cx="256"
     inkscape:cy="256"
     inkscape:window-x="0"
     inkscape:window-y="24"
     inkscape:window-maximized="1"
     inkscape:current-layer="Capa_1" /><g
     id="g3"
     style="fill:#300024;fill-opacity:1"><path
       d="M295.101,298.649H38.561C17.295,298.649,0,281.354,0,260.088V103.703c0-21.266,17.295-38.561,38.561-38.561h52.347   l4.582-15.457c1.87-8.458,9.602-14.666,18.696-14.666h105.297c8.837,0,16.658,6.176,18.728,14.743l0.122,0.527l4.177,14.852h52.597   c21.266,0,38.561,17.295,38.561,38.561v156.384C333.662,281.354,316.361,298.649,295.101,298.649z M38.561,77.996   c-14.178,0-25.707,11.53-25.707,25.707v156.384c0,14.178,11.53,25.707,25.707,25.707h256.54c14.178,0,25.707-11.53,25.707-25.707   V103.703c0-14.178-11.53-25.707-25.707-25.707h-62.327l-7.037-25.097c-0.649-2.918-3.278-5.032-6.26-5.032H114.179   c-3.027,0-5.598,2.069-6.26,5.039l-7.429,25.09H38.561z M166.841,259.798c-44.981,0-81.576-36.588-81.576-81.563   c0-44.981,36.594-81.569,81.576-81.569c44.969,0,81.557,36.594,81.557,81.569C248.397,223.204,211.809,259.798,166.841,259.798z    M166.841,109.513c-37.893,0-68.722,30.823-68.722,68.716s30.83,68.709,68.722,68.709c37.886,0,68.703-30.823,68.703-68.709   C235.543,140.336,204.72,109.513,166.841,109.513z M286.804,101.852c-6.555,0-11.858,5.315-11.858,11.858   c0,6.549,5.302,11.857,11.858,11.857c6.549,0,11.851-5.309,11.851-11.857C298.649,107.167,293.346,101.852,286.804,101.852z"
       fill="#FFFFFF"
       id="path5"
       style="fill:#300024;fill-opacity:1" /></g><g
     id="g7" /><g
     id="g9" /><g
     id="g11" /><g
     id="g13" /><g
     id="g15" /><g
     id="g17" /><g
     id="g19" /><g
     id="g21" /><g
     id="g23" /><g
     id="g25" /><g
     id="g27" /><g
     id="g29" /><g
     id="g31" /><g
     id="g33" /><g
     id="g35" /></svg>