<?xml version="1.0" encoding="UTF-8" standalone="no"?>
<!-- Created with Inkscape (http://www.inkscape.org/) -->

<svg
   xmlns:dc="http://purl.org/dc/elements/1.1/"
   xmlns:cc="http://creativecommons.org/ns#"
   xmlns:rdf="http://www.w3.org/1999/02/22-rdf-syntax-ns#"
   xmlns:svg="http://www.w3.org/2000/svg"
   xmlns="http://www.w3.org/2000/svg"
   xmlns:sodipodi="http://sodipodi.sourceforge.net/DTD/sodipodi-0.dtd"
   xmlns:inkscape="http://www.inkscape.org/namespaces/inkscape"
   width="200"
   height="200"
   viewBox="0 0 200 200"
   id="svg2"
   version="1.1"
   inkscape:version="0.91 r13725"
   sodipodi:docname="geobolivia_c.svg">
  <defs
     id="defs4" />
  <sodipodi:namedview
     id="base"
     pagecolor="#ffffff"
     bordercolor="#666666"
     borderopacity="1.0"
     inkscape:pageopacity="0.0"
     inkscape:pageshadow="2"
     inkscape:zoom="0.49497475"
     inkscape:cx="56.165717"
     inkscape:cy="270.80242"
     inkscape:document-units="px"
     inkscape:current-layer="g4149"
     showgrid="false"
     units="px"
     inkscape:window-width="1920"
     inkscape:window-height="993"
     inkscape:window-x="0"
     inkscape:window-y="24"
     inkscape:window-maximized="1" />
  <metadata
     id="metadata7">
    <rdf:RDF>
      <cc:Work
         rdf:about="">
        <dc:format>image/svg+xml</dc:format>
        <dc:type
           rdf:resource="http://purl.org/dc/dcmitype/StillImage" />
        <dc:title></dc:title>
      </cc:Work>
    </rdf:RDF>
  </metadata>
  <g
     inkscape:label="Capa 1"
     inkscape:groupmode="layer"
     id="layer1"
     transform="translate(0,-852.36213)">
    <g
       id="g4149"
       transform="translate(41.428574,10.714285)">
      <path
         style="fill:none;stroke:#300024;stroke-width:7.515;stroke-miterlimit:4;stroke-dasharray:none;stroke-opacity:1"
         d="m 8.668707,1025.7433 c -0.178387,-0.5661 -0.5719035,-2.8814 -0.8744813,-5.1455 -0.3025778,-2.264 -0.8210755,-4.4868 -1.1522209,-4.9396 -0.821067,-1.1227 -2.5369173,-7.2598 -2.5369173,-9.0738 0,-0.8103 -0.9261828,-2.6876 -2.058184,-4.1718 -1.13200128,-1.4842 -2.05818411,-3.41874 -2.05818411,-4.29908 0,-0.88043 -0.55570969,-2.06188 -1.23491039,-2.62554 -1.5575187,-1.29263 -1.5849585,-4.07351 -0.061664,-6.24834 0.67246634,-0.96008 0.89256857,-2.12924 0.51564922,-2.73911 -0.36168052,-0.58522 -0.24237172,-2.16414 0.26514354,-3.50869 0.8496595,-2.25102 0.7149719,-2.61918 -1.70029876,-4.64772 -2.1521858,-1.80759 -2.795533,-3.16369 -3.5838262,-7.55435 -0.5284261,-2.9432 -1.6784895,-6.37674 -2.5556957,-7.63011 -0.8772146,-1.25336 -2.3213101,-3.97341 -3.2091031,-6.04455 l -1.614169,-3.76569 3.387327,-3.83474 c 4.8326401,-5.47098 5.424903,-7.40479 2.921311,-9.53852 -3.0767781,-2.62224 -4.095283,-6.63025 -2.4790903,-9.75562 1.0155736,-1.96391 1.1063641,-2.89155 0.3945705,-4.03132 -1.4088432,-2.25591 -1.1656392,-3.22492 1.9827393,-7.9 2.3100396,-3.43021 2.7367259,-4.63575 2.0770615,-5.86835 -1.1512738,-2.15117 -0.1156208,-14.64197 1.3122651,-15.82702 1.9317461,-1.6032 1.2406161,-4.09621 -3.4151527,-12.31897 -2.4904026,-4.39842 -4.5280044,-8.36496 -4.5280044,-8.81454 0,-1.39216 2.0166904,-1.68453 5.8192347,-0.84362 5.76524548,1.27494 7.3401432,1.00891 10.1500172,-1.71452 1.4480475,-1.40349 3.2882205,-2.55181 4.0892741,-2.55181 0.8010531,0 2.670749,-0.92619 4.154881,-2.05818 1.484132,-1.13201 3.075602,-2.05819 3.536602,-2.05819 0.460993,0 2.192139,-1.07599 3.846985,-2.3911 3.255485,-2.58713 8.191052,-3.99372 15.329616,-4.3688 l 4.528005,-0.23793 0.01622,10.29092 c 0.01622,10.27331 0.02083,10.29762 2.71519,14.20148 1.484444,2.15081 3.005096,3.91055 3.379233,3.91055 0.374137,0 2.110503,1.31007 3.858601,2.91126 2.730092,2.50068 3.702599,2.89419 6.895485,2.79017 4.253641,-0.13856 9.955947,1.7723 12.308139,4.12449 0.883051,0.88305 3.201291,2.05871 5.151642,2.61258 1.950352,0.55387 4.675149,2.057 6.055112,3.34028 2.150621,1.99996 3.184282,2.33324 7.236444,2.33324 7.223313,0 13.608827,3.7659 12.643667,7.45669 -0.244879,0.93642 0.0818,2.96409 0.7261,4.50595 1.41822,3.39427 1.4982,6.4716 0.22137,8.51614 -0.75072,1.20208 -0.66437,1.92888 0.41164,3.46511 0.79959,1.14156 1.3616,3.54737 1.3616,5.82856 0,2.15814 0.44418,4.15912 0.99943,4.50227 0.54969,0.33974 5.64369,0.82468 11.32002,1.07769 9.76504,0.43523 10.30269,0.54863 9.98842,2.10654 -0.18267,0.9056 -0.32987,3.41817 -0.32708,5.58348 0.005,4.09527 0.99039,5.51585 4.98307,7.18566 1.11179,0.46496 2.65985,2.5975 3.86694,5.32696 1.86983,4.22803 1.92824,4.75427 0.82163,7.40277 -0.65522,1.56815 -1.19285,3.69666 -1.19476,4.73 -0.002,1.03334 -0.92807,3.70134 -2.05818,5.92888 -2.18561,4.30804 -2.57104,6.64785 -1.23146,7.47575 1.24361,0.76859 0.987,2.64247 -0.43668,3.18879 -0.82711,0.3174 -1.58853,-0.23766 -2.2164,-1.6157 -0.53633,-1.1771 -3.34901,-3.52058 -6.40323,-5.33506 -4.74012,-2.81604 -6.08138,-3.23076 -10.33851,-3.19666 -6.58045,0.0527 -26.009775,4.24426 -26.76992,5.77513 -0.323209,0.65093 -1.923505,3.46218 -3.556204,6.24724 -2.132453,3.6375 -2.968561,6.03625 -2.968561,8.51655 0,3.4926 -2.91764,14.5899 -4.206566,15.9997 -0.427534,0.4677 -1.436291,0.3713 -2.592719,-0.2475 -1.135236,-0.6076 -4.190043,-0.914 -7.631911,-0.7655 l -5.739007,0.2476 -2.316256,4.3222 c -1.273942,2.3772 -2.666212,4.3222 -3.093944,4.3222 -0.427724,0 -1.356014,-1.4454 -2.062861,-3.212 -1.462035,-3.6539 -2.647269,-4.1617 -9.815686,-4.2046 -3.618922,-0.021 -5.489942,-0.46 -6.997826,-1.6395 -1.132001,-0.8854 -2.322973,-1.6181 -2.646594,-1.6281 -0.706476,-0.022 -3.15108,2.1006 -9.697422,8.4201 -4.32891,4.1791 -5.295105,4.7339 -8.243131,4.7339 -1.949735,0 -3.4744379,-0.4283 -3.6638074,-1.0291 z"
         id="path4159"
         inkscape:connector-curvature="0"
         sodipodi:nodetypes="cssssssscssssscsssssssssssssssscsssssssssscssscsscssscsssssssssssscsssssssscc" />
    </g>
    <path
       style="fill:#000000"
       d=""
       id="path4147"
       inkscape:connector-curvature="0" />
  </g>
</svg>
