<?xml version="1.0" encoding="UTF-8" standalone="no"?>
<!-- Created with Inkscape (http://www.inkscape.org/) -->

<svg
   xmlns:dc="http://purl.org/dc/elements/1.1/"
   xmlns:cc="http://creativecommons.org/ns#"
   xmlns:rdf="http://www.w3.org/1999/02/22-rdf-syntax-ns#"
   xmlns:svg="http://www.w3.org/2000/svg"
   xmlns="http://www.w3.org/2000/svg"
   xmlns:sodipodi="http://sodipodi.sourceforge.net/DTD/sodipodi-0.dtd"
   xmlns:inkscape="http://www.inkscape.org/namespaces/inkscape"
   id="svg2"
   version="1.1"
   inkscape:version="0.91 r13725"
   xml:space="preserve"
   width="480"
   height="513.75"
   viewBox="0 0 480 513.75"
   sodipodi:docname="brujula_c.svg"><metadata
     id="metadata8"><rdf:RDF><cc:Work
         rdf:about=""><dc:format>image/svg+xml</dc:format><dc:type
           rdf:resource="http://purl.org/dc/dcmitype/StillImage" /><dc:title></dc:title></cc:Work></rdf:RDF></metadata><defs
     id="defs6"><clipPath
       clipPathUnits="userSpaceOnUse"
       id="clipPath18"><path
         d="m 0,6 3840,0 0,4100 L 0,4106 0,6 Z"
         id="path20"
         inkscape:connector-curvature="0" /></clipPath></defs><sodipodi:namedview
     pagecolor="#ffffff"
     bordercolor="#666666"
     borderopacity="1"
     objecttolerance="10"
     gridtolerance="10"
     guidetolerance="10"
     inkscape:pageopacity="0"
     inkscape:pageshadow="2"
     inkscape:window-width="1920"
     inkscape:window-height="993"
     id="namedview4"
     showgrid="false"
     inkscape:zoom="0.4593674"
     inkscape:cx="-259.60011"
     inkscape:cy="256.875"
     inkscape:window-x="0"
     inkscape:window-y="24"
     inkscape:window-maximized="1"
     inkscape:current-layer="g10" /><g
     id="g10"
     inkscape:groupmode="layer"
     inkscape:label="ink_ext_XXXXXX"
     transform="matrix(1.25,0,0,-1.25,0,513.75)"><g
       id="g12"
       transform="matrix(0.09089554,0,0,0.09089554,15.659758,25.388567)"
       style="fill:#300018;fill-opacity:1"><g
         id="g14"
         style="fill:#300018;fill-opacity:1"><g
           id="g16"
           clip-path="url(#clipPath18)"
           style="fill:#300018;fill-opacity:1"><path
             d="m 1789.49,2826 -125.51,0 0,640 163.29,0 c 0,0 187.5,-355 224.72,-443.52 l 0,443.52 124.03,0 0,-640 -147.04,0 c 0,0 -208.98,398.01 -239.49,473.01 z m 371.53,-973.01 573.47,-737.5 -737.5,573.52 c -88.01,-28.24 -188.01,-10 -258.01,60 -70,70 -87.96,170 -60,258.01 l -573.47,737.5 737.5,-573.52 c 88.01,28.01 188.01,10 258.01,-60 70,-70 88.24,-170 60,-258.01 z"
             style="fill:#300018;fill-opacity:1;fill-rule:nonzero;stroke:#ffffff;stroke-width:31.39999962;stroke-miterlimit:4;stroke-dasharray:none;stroke-opacity:1"
             id="path22"
             inkscape:connector-curvature="0"
             sodipodi:nodetypes="ccccccccccccccscccsc" /></g></g></g><g
       inkscape:groupmode="layer"
       id="layer1"
       inkscape:label="Layer 1"><path
         d="m 212.6588,371.88327 0,24.99627 -46.54216,0 0,-24.99627 C 80.767544,360.47497 14.868276,287.57765 14.868276,199.08902 c 0,-96.39473 78.123628,-174.5194 174.519444,-174.5194 96.39563,0 174.51943,78.12831 174.51943,174.5194 0,88.48863 -65.89927,161.38595 -151.24835,172.79425 z m -11.63554,-323.453614 0,22.682073 -23.27108,0 0,-22.682073 C 103.62959,54.110627 44.409327,113.35252 38.728356,187.45803 l 22.677347,0 0,23.26653 -22.677347,0 c 5.975291,77.96838 71.193024,139.61737 150.659364,139.61737 79.46634,0 144.68388,-61.64899 150.65935,-139.61737 l -22.67753,0 0,-23.26653 22.67753,0 C 334.3661,113.35252 275.12403,54.110627 201.02326,48.429656 Z"
         style="fill:#300018;fill-opacity:1;fill-rule:nonzero;stroke:#ffffff;stroke-width:10.19847965;stroke-miterlimit:4;stroke-dasharray:none;stroke-opacity:1"
         id="path22-3"
         inkscape:connector-curvature="0"
         sodipodi:nodetypes="ccccssscccccccccsccccc" /></g></g></svg>