<?xml version="1.0" encoding="iso-8859-1"?>
<svg xmlns="http://www.w3.org/2000/svg" xmlns:xlink="http://www.w3.org/1999/xlink" version="1.1" viewBox="0 0 60.974 60.974" enable-background="new 0 0 60.974 60.974" width="512px" height="512px">
  <g>
    <g>
      <path d="m33.776,9.968c-1.093-0.218-2.201-0.328-3.293-0.328-8.879,0-16.102,7.222-16.102,16.102 0,5.757 3.095,11.114 8.078,13.978 0.194,0.112 0.576,0.403 0.867,0.633v4.28c0,2.873 2.336,5.208 5.209,5.208h4.202c2.872,0 5.207-2.335 5.207-5.208v-4.349c0.236-0.264 0.472-0.502 0.559-0.561 5.843-3.355 8.933-9.871 7.877-16.598-1.033-6.576-6.099-11.863-12.604-13.157zm3.686,27.95c-0.482,0.281-1.115,1.017-1.365,1.32-0.153,0.187-0.236,0.419-0.236,0.661v4.734c0,1.723-1.402,3.125-3.124,3.125h-4.202c-1.723,0-3.126-1.402-3.126-3.125v-4.781c0-0.315-0.142-0.612-0.387-0.81-0.18-0.146-1.101-0.885-1.526-1.129-4.338-2.494-7.033-7.157-7.033-12.172 0-7.731 6.288-14.019 14.019-14.019 0.955,0 1.927,0.096 2.886,0.287 5.566,1.109 10.07,5.81 10.953,11.435 0.922,5.871-1.769,11.551-6.859,14.474z" fill="#300024"/>
    </g>
    <g>
      <path d="m36.107,52.82h-11.238c-0.576,0-1.042,0.466-1.042,1.042 0,0.576 0.466,1.042 1.042,1.042h11.238c0.576,0 1.042-0.466 1.042-1.042 0-0.576-0.466-1.042-1.042-1.042z" fill="#300024"/>
    </g>
    <g>
      <path d="m36.107,58.89h-11.238c-0.576,0-1.042,0.466-1.042,1.042s0.466,1.042 1.042,1.042h11.238c0.576,0 1.042-0.466 1.042-1.042s-0.466-1.042-1.042-1.042z" fill="#300024"/>
    </g>
    <g>
      <path d="m7.23,29.724l-4.082,1.326c-0.547,0.177-0.847,0.765-0.669,1.312 0.143,0.441 0.551,0.72 0.991,0.72 0.107,0 0.215-0.016 0.321-0.051l4.082-1.326c0.547-0.177 0.847-0.765 0.669-1.312-0.179-0.549-0.769-0.846-1.312-0.669z" fill="#300024"/>
    </g>
    <g>
      <path d="m7.873,15.239l-4.082-1.326c-0.547-0.179-1.134,0.12-1.312,0.669-0.178,0.547 0.122,1.135 0.669,1.312l4.082,1.326c0.107,0.035 0.215,0.051 0.321,0.051 0.439,0 0.847-0.279 0.991-0.72 0.178-0.547-0.122-1.135-0.669-1.312z" fill="#300024"/>
    </g>
    <g>
      <path d="m16.066,5.556c0.213,0 0.426-0.065 0.611-0.199 0.465-0.338 0.569-0.989 0.23-1.455l-2.524-3.473c-0.338-0.466-0.988-0.568-1.455-0.23-0.465,0.338-0.569,0.989-0.23,1.455l2.524,3.473c0.205,0.28 0.522,0.429 0.844,0.429z" fill="#300024"/>
    </g>
    <g>
      <path d="m57.826,31.05l-4.081-1.326c-0.543-0.175-1.135,0.122-1.312,0.669-0.177,0.547 0.122,1.135 0.669,1.312l4.081,1.326c0.106,0.035 0.216,0.051 0.321,0.051 0.439,0 0.848-0.279 0.991-0.72 0.177-0.547-0.122-1.135-0.669-1.312z" fill="#300024"/>
    </g>
    <g>
      <path d="m57.183,13.913l-4.081,1.326c-0.547,0.177-0.846,0.765-0.669,1.312 0.142,0.441 0.551,0.72 0.991,0.72 0.106,0 0.216-0.016 0.321-0.051l4.081-1.326c0.547-0.177 0.846-0.765 0.669-1.312-0.175-0.547-0.763-0.844-1.312-0.669z" fill="#300024"/>
    </g>
    <g>
      <path d="m46.59,.429l-2.523,3.473c-0.338,0.466-0.236,1.117 0.23,1.455 0.185,0.134 0.399,0.199 0.612,0.199 0.321,0 0.639-0.149 0.842-0.429l2.523-3.473c0.338-0.466 0.236-1.117-0.23-1.455-0.463-0.338-1.116-0.236-1.454,0.23z" fill="#300024"/>
    </g>
    <g>
      <path d="m36.131,14.897c-0.486-0.299-1.131-0.149-1.432,0.346-0.299,0.49-0.144,1.131 0.346,1.432 2.576,1.575 4.61,3.979 5.729,6.77 0.163,0.407 0.553,0.655 0.966,0.655 0.13,0 0.26-0.024 0.387-0.075 0.535-0.214 0.793-0.82 0.58-1.353-1.284-3.205-3.62-5.968-6.576-7.775z" fill="#300024"/>
    </g>
  </g>
</svg>
