<?xml version="1.0" encoding="UTF-8" standalone="no"?>
<!-- Generator: Adobe Illustrator 18.0.0, SVG Export Plug-In . SVG Version: 6.00 Build 0)  -->

<svg
   xmlns:dc="http://purl.org/dc/elements/1.1/"
   xmlns:cc="http://creativecommons.org/ns#"
   xmlns:rdf="http://www.w3.org/1999/02/22-rdf-syntax-ns#"
   xmlns:svg="http://www.w3.org/2000/svg"
   xmlns="http://www.w3.org/2000/svg"
   xmlns:sodipodi="http://sodipodi.sourceforge.net/DTD/sodipodi-0.dtd"
   xmlns:inkscape="http://www.inkscape.org/namespaces/inkscape"
   version="1.1"
   id="Capa_1"
   x="0px"
   y="0px"
   viewBox="0 0 60 60"
   style="enable-background:new 0 0 60 60;"
   xml:space="preserve"
   width="512px"
   height="512px"
   inkscape:version="0.91 r13725"
   sodipodi:docname="infraestructura_c.svg"><metadata
     id="metadata91"><rdf:RDF><cc:Work
         rdf:about=""><dc:format>image/svg+xml</dc:format><dc:type
           rdf:resource="http://purl.org/dc/dcmitype/StillImage" /><dc:title /></cc:Work></rdf:RDF></metadata><defs
     id="defs89" /><sodipodi:namedview
     pagecolor="#ffffff"
     bordercolor="#666666"
     borderopacity="1"
     objecttolerance="10"
     gridtolerance="10"
     guidetolerance="10"
     inkscape:pageopacity="0"
     inkscape:pageshadow="2"
     inkscape:window-width="1920"
     inkscape:window-height="993"
     id="namedview87"
     showgrid="false"
     inkscape:zoom="0.4609375"
     inkscape:cx="-241.89831"
     inkscape:cy="256"
     inkscape:window-x="0"
     inkscape:window-y="24"
     inkscape:window-maximized="1"
     inkscape:current-layer="Capa_1" /><g
     id="g3"
     style="fill:#300024;fill-opacity:1"
     transform="matrix(0.83050848,0,0,0.83050848,5.0847455,5.0847455)"><path
       d="m 59.188,44.863 -1.444,-0.277 c -0.677,-0.13 -1.21,-0.573 -1.462,-1.216 -0.253,-0.642 -0.163,-1.329 0.245,-1.885 l 0.907,-1.236 c 0.292,-0.398 0.25,-0.95 -0.1,-1.299 l -1.959,-1.958 c -0.339,-0.338 -0.872,-0.389 -1.268,-0.121 l -1.217,0.824 c -0.57,0.389 -1.262,0.452 -1.895,0.175 -0.632,-0.275 -1.055,-0.825 -1.16,-1.508 L 49.602,34.847 C 49.528,34.36 49.108,34 48.615,34 l -2.77,0 c -0.479,0 -0.892,0.341 -0.982,0.812 l -0.358,1.865 c -0.127,0.662 -0.558,1.19 -1.181,1.448 -0.625,0.261 -1.301,0.189 -1.86,-0.189 l -1.572,-1.064 c -0.397,-0.268 -0.929,-0.217 -1.268,0.121 l -1.959,1.958 c -0.35,0.349 -0.392,0.9 -0.1,1.299 l 0.907,1.236 c 0.408,0.556 0.498,1.243 0.245,1.885 -0.252,0.643 -0.785,1.086 -1.462,1.216 l -1.444,0.277 C 34.341,44.954 34,45.366 34,45.846 l 0,2.77 c 0,0.493 0.36,0.913 0.848,0.988 l 1.515,0.233 c 0.683,0.105 1.232,0.528 1.508,1.16 0.276,0.633 0.212,1.323 -0.175,1.895 l -0.824,1.217 c -0.269,0.396 -0.218,0.929 0.121,1.268 l 1.958,1.959 c 0.348,0.348 0.899,0.391 1.299,0.1 l 1.236,-0.907 c 0.555,-0.407 1.244,-0.498 1.885,-0.245 0.643,0.252 1.086,0.785 1.216,1.462 l 0.277,1.444 c 0.09,0.469 0.502,0.81 0.982,0.81 l 2.77,0 c 0.493,0 0.913,-0.36 0.988,-0.848 l 0.164,-1.065 c 0.105,-0.688 0.552,-1.256 1.193,-1.522 0.644,-0.266 1.361,-0.179 1.921,0.232 l 0.869,0.638 c 0.4,0.292 0.951,0.249 1.299,-0.1 l 1.958,-1.959 c 0.339,-0.339 0.39,-0.871 0.121,-1.268 l -0.824,-1.217 c -0.387,-0.571 -0.451,-1.262 -0.175,-1.895 0.275,-0.632 0.825,-1.055 1.508,-1.16 l 1.515,-0.233 C 59.64,49.528 60,49.108 60,48.615 l 0,-2.77 c 0,-0.479 -0.341,-0.891 -0.812,-0.982 z M 58,47.758 57.333,47.861 c -1.354,0.208 -2.489,1.082 -3.036,2.337 -0.548,1.256 -0.416,2.682 0.352,3.815 l 0.361,0.533 -0.768,0.768 -0.177,-0.13 c -1.13,-0.827 -2.575,-1.001 -3.869,-0.467 -1.294,0.536 -2.192,1.682 -2.405,3.065 L 47.758,58 46.672,58 46.551,57.367 c -0.259,-1.346 -1.175,-2.447 -2.449,-2.947 -1.275,-0.5 -2.695,-0.314 -3.8,0.494 l -0.544,0.399 -0.768,-0.768 0.361,-0.533 c 0.768,-1.134 0.899,-2.56 0.352,-3.815 C 39.156,48.942 38.02,48.068 36.667,47.86 L 36,47.758 l 0,-1.086 0.633,-0.121 c 1.346,-0.259 2.447,-1.175 2.947,-2.449 0.5,-1.275 0.315,-2.695 -0.494,-3.8 l -0.399,-0.544 0.768,-0.768 0.889,0.602 c 1.107,0.752 2.51,0.893 3.747,0.381 1.237,-0.513 2.127,-1.604 2.38,-2.919 L 46.672,36 l 1.086,0 0.103,0.667 c 0.208,1.354 1.082,2.489 2.337,3.036 1.256,0.548 2.682,0.416 3.815,-0.352 l 0.533,-0.361 0.768,0.768 -0.399,0.544 c -0.81,1.104 -0.994,2.524 -0.494,3.8 0.5,1.274 1.602,2.19 2.947,2.449 l 0.632,0.121 0,1.086 z"
       id="path5"
       style="fill:#300024;fill-opacity:1"
       inkscape:connector-curvature="0" /><path
       d="m 47,42 c -2.757,0 -5,2.243 -5,5 0,2.757 2.243,5 5,5 2.757,0 5,-2.243 5,-5 0,-2.757 -2.243,-5 -5,-5 z m 0,8 c -1.654,0 -3,-1.346 -3,-3 0,-1.654 1.346,-3 3,-3 1.654,0 3,1.346 3,3 0,1.654 -1.346,3 -3,3 z"
       id="path7"
       style="fill:#300024;fill-opacity:1"
       inkscape:connector-curvature="0" /><path
       d="M 10.5,6 C 8.019,6 6,8.019 6,10.5 6,12.981 8.019,15 10.5,15 12.981,15 15,12.981 15,10.5 15,8.019 12.981,6 10.5,6 Z m 0,7 C 9.121,13 8,11.879 8,10.5 8,9.121 9.121,8 10.5,8 11.879,8 13,9.121 13,10.5 13,11.879 11.879,13 10.5,13 Z"
       id="path9"
       style="fill:#300024;fill-opacity:1"
       inkscape:connector-curvature="0" /><circle
       cx="50"
       cy="9"
       r="1"
       id="circle11"
       style="fill:#300024;fill-opacity:1" /><circle
       cx="46"
       cy="9"
       r="1"
       id="circle13"
       style="fill:#300024;fill-opacity:1" /><circle
       cx="52"
       cy="12"
       r="1"
       id="circle15"
       style="fill:#300024;fill-opacity:1" /><circle
       cx="48"
       cy="12"
       r="1"
       id="circle17"
       style="fill:#300024;fill-opacity:1" /><circle
       cx="42"
       cy="9"
       r="1"
       id="circle19"
       style="fill:#300024;fill-opacity:1" /><circle
       cx="44"
       cy="12"
       r="1"
       id="circle21"
       style="fill:#300024;fill-opacity:1" /><circle
       cx="38"
       cy="9"
       r="1"
       id="circle23"
       style="fill:#300024;fill-opacity:1" /><circle
       cx="40"
       cy="12"
       r="1"
       id="circle25"
       style="fill:#300024;fill-opacity:1" /><circle
       cx="34"
       cy="9"
       r="1"
       id="circle27"
       style="fill:#300024;fill-opacity:1" /><circle
       cx="36"
       cy="12"
       r="1"
       id="circle29"
       style="fill:#300024;fill-opacity:1" /><path
       d="M 60,16.392 60,4.608 C 60,2.067 57.933,0 55.392,0 L 4.608,0 C 2.067,0 0,2.067 0,4.608 L 0,16.391 C 0,17.86 0.703,19.155 1.777,20 0.703,20.845 0,22.14 0,23.608 L 0,35.391 C 0,36.86 0.703,38.155 1.777,39 0.703,39.845 0,41.14 0,42.608 L 0,54.391 C 0,56.933 2.067,59 4.608,59 L 33,59 33,57 4.608,57 C 3.17,57 2,55.83 2,54.392 L 2,42.608 C 2,41.17 3.17,40 4.608,40 L 28,40 28,38 4.608,38 C 3.17,38 2,36.83 2,35.392 L 2,23.608 C 2,22.17 3.17,21 4.608,21 l 50.783,0 C 56.83,21 58,22.17 58,23.608 L 58,35 60,35 60,23.608 C 60,22.139 59.297,20.844 58.223,20 59.297,19.155 60,17.86 60,16.392 Z M 4.608,19 C 3.17,19 2,17.83 2,16.392 L 2,4.608 C 2,3.17 3.17,2 4.608,2 L 55.391,2 C 56.83,2 58,3.17 58,4.608 l 0,11.783 C 58,17.83 56.83,19 55.392,19 L 4.608,19 Z"
       id="path31"
       style="fill:#300024;fill-opacity:1"
       inkscape:connector-curvature="0" /><path
       d="M 6,29.5 C 6,31.981 8.019,34 10.5,34 12.981,34 15,31.981 15,29.5 15,27.019 12.981,25 10.5,25 8.019,25 6,27.019 6,29.5 Z m 7,0 C 13,30.879 11.879,32 10.5,32 9.121,32 8,30.879 8,29.5 8,28.121 9.121,27 10.5,27 c 1.379,0 2.5,1.121 2.5,2.5 z"
       id="path33"
       style="fill:#300024;fill-opacity:1"
       inkscape:connector-curvature="0" /><circle
       cx="50"
       cy="28"
       r="1"
       id="circle35"
       style="fill:#300024;fill-opacity:1" /><circle
       cx="46"
       cy="28"
       r="1"
       id="circle37"
       style="fill:#300024;fill-opacity:1" /><circle
       cx="52"
       cy="31"
       r="1"
       id="circle39"
       style="fill:#300024;fill-opacity:1" /><circle
       cx="48"
       cy="31"
       r="1"
       id="circle41"
       style="fill:#300024;fill-opacity:1" /><circle
       cx="42"
       cy="28"
       r="1"
       id="circle43"
       style="fill:#300024;fill-opacity:1" /><circle
       cx="44"
       cy="31"
       r="1"
       id="circle45"
       style="fill:#300024;fill-opacity:1" /><circle
       cx="38"
       cy="28"
       r="1"
       id="circle47"
       style="fill:#300024;fill-opacity:1" /><circle
       cx="40"
       cy="31"
       r="1"
       id="circle49"
       style="fill:#300024;fill-opacity:1" /><circle
       cx="34"
       cy="28"
       r="1"
       id="circle51"
       style="fill:#300024;fill-opacity:1" /><circle
       cx="36"
       cy="31"
       r="1"
       id="circle53"
       style="fill:#300024;fill-opacity:1" /><path
       d="M 6,48.5 C 6,50.981 8.019,53 10.5,53 12.981,53 15,50.981 15,48.5 15,46.019 12.981,44 10.5,44 8.019,44 6,46.019 6,48.5 Z m 7,0 C 13,49.879 11.879,51 10.5,51 9.121,51 8,49.879 8,48.5 8,47.121 9.121,46 10.5,46 c 1.379,0 2.5,1.121 2.5,2.5 z"
       id="path55"
       style="fill:#300024;fill-opacity:1"
       inkscape:connector-curvature="0" /></g><g
     id="g57" /><g
     id="g59" /><g
     id="g61" /><g
     id="g63" /><g
     id="g65" /><g
     id="g67" /><g
     id="g69" /><g
     id="g71" /><g
     id="g73" /><g
     id="g75" /><g
     id="g77" /><g
     id="g79" /><g
     id="g81" /><g
     id="g83" /><g
     id="g85" /></svg>