<?xml version="1.0" encoding="UTF-8" standalone="no"?>
<!-- Generator: Adobe Illustrator 18.1.1, SVG Export Plug-In . SVG Version: 6.00 Build 0)  -->

<svg
   xmlns:dc="http://purl.org/dc/elements/1.1/"
   xmlns:cc="http://creativecommons.org/ns#"
   xmlns:rdf="http://www.w3.org/1999/02/22-rdf-syntax-ns#"
   xmlns:svg="http://www.w3.org/2000/svg"
   xmlns="http://www.w3.org/2000/svg"
   xmlns:sodipodi="http://sodipodi.sourceforge.net/DTD/sodipodi-0.dtd"
   xmlns:inkscape="http://www.inkscape.org/namespaces/inkscape"
   version="1.1"
   id="Capa_1"
   x="0px"
   y="0px"
   viewBox="0 0 307.454 307.454"
   style="enable-background:new 0 0 307.454 307.454;"
   xml:space="preserve"
   width="512px"
   height="512px"
   inkscape:version="0.91 r13725"
   sodipodi:docname="noticialeida.svg"><metadata
     id="metadata66"><rdf:RDF><cc:Work
         rdf:about=""><dc:format>image/svg+xml</dc:format><dc:type
           rdf:resource="http://purl.org/dc/dcmitype/StillImage" /></cc:Work></rdf:RDF></metadata><defs
     id="defs64" /><sodipodi:namedview
     pagecolor="#ffffff"
     bordercolor="#666666"
     borderopacity="1"
     objecttolerance="10"
     gridtolerance="10"
     guidetolerance="10"
     inkscape:pageopacity="0"
     inkscape:pageshadow="2"
     inkscape:window-width="1920"
     inkscape:window-height="993"
     id="namedview62"
     showgrid="false"
     inkscape:zoom="0.4609375"
     inkscape:cx="256"
     inkscape:cy="256"
     inkscape:window-x="0"
     inkscape:window-y="24"
     inkscape:window-maximized="1"
     inkscape:current-layer="Capa_1" /><g
     id="g3"
     style="fill:#300024;fill-opacity:1"><g
       id="Layer_5_29_"
       style="fill:#300024;fill-opacity:1"><g
         id="g6"
         style="fill:#300024;fill-opacity:1"><g
           id="g8"
           style="fill:#300024;fill-opacity:1"><g
             id="g10"
             style="fill:#300024;fill-opacity:1"><path
               d="M241.19,200.541c0,2.691-2.201,4.895-4.893,4.895H71.158c-2.693,0-4.895-2.203-4.895-4.895v-3.261       c0-2.691,2.201-4.894,4.895-4.894h165.139c2.691,0,4.893,2.202,4.893,4.894L241.19,200.541L241.19,200.541z"
               fill="#FFFFFF"
               id="path12"
               style="fill:#300024;fill-opacity:1" /></g><g
             id="g14"
             style="fill:#300024;fill-opacity:1"><path
               d="M140.219,64.99c0,2.69-2.201,4.893-4.895,4.893H71.158c-2.693,0-4.895-2.202-4.895-4.893v-3.263       c0-2.691,2.201-4.894,4.895-4.894h64.166c2.693,0,4.895,2.202,4.895,4.894V64.99z"
               fill="#FFFFFF"
               id="path16"
               style="fill:#300024;fill-opacity:1" /></g><g
             id="g18"
             style="fill:#300024;fill-opacity:1"><path
               d="M238.713,245.727c0,2.69-2.203,4.892-4.897,4.892H169.65c-2.693,0-4.895-2.202-4.895-4.892v-3.263       c0-2.691,2.201-4.894,4.895-4.894h64.166c2.693,0,4.897,2.202,4.897,4.894V245.727z"
               fill="#FFFFFF"
               id="path20"
               style="fill:#300024;fill-opacity:1" /></g><g
             id="g22"
             style="fill:#300024;fill-opacity:1"><path
               d="M174.238,110.172c0,2.691-2.201,4.895-4.893,4.895H71.157c-2.693,0-4.895-2.203-4.895-4.895v-3.261       c0-2.691,2.201-4.893,4.895-4.893h98.188c2.691,0,4.893,2.202,4.893,4.893V110.172z"
               fill="#FFFFFF"
               id="path24"
               style="fill:#300024;fill-opacity:1" /></g><g
             id="g26"
             style="fill:#300024;fill-opacity:1"><path
               d="M241.19,155.357c0,2.691-2.201,4.893-4.893,4.893H71.158c-2.693,0-4.895-2.202-4.895-4.893v-3.262       c0-2.691,2.201-4.894,4.895-4.894h165.139c2.691,0,4.893,2.202,4.893,4.894L241.19,155.357L241.19,155.357z"
               fill="#FFFFFF"
               id="path28"
               style="fill:#300024;fill-opacity:1" /></g></g><path
           d="M272.401,74.521L193.278,9.454C186.727,4.062,175.389,0,166.907,0H42.442c-10.76,0-19.516,8.754-19.516,19.516     c0,0,0,210.024,0,267.839c0,20.099,19.01,20.099,19.463,20.099c48.34,0,222.623,0,222.623,0c10.762,0,19.516-8.755,19.516-19.517     V100.198C284.528,91.247,279.313,80.207,272.401,74.521z M187.867,29.475c0-4.781,3.959-1.113,3.959-1.113l62.717,53.585     c0,0,4.014,3.949-2.865,3.949c-14.688,0-58.746,0-58.746,0c-2.793,0-5.065-2.271-5.065-5.064     C187.867,80.832,187.867,42.315,187.867,29.475z M265.012,292.999c0,0-179.055,0-223.99,0c-0.801,0-3.643-0.229-3.643-4.182     c0-54.407,0-269.302,0-269.302c0-2.745,2.32-5.063,5.063-5.063h124.464c2.107,0,6.51,1.118,6.51,7.138v59.242     c0,10.761,8.754,19.516,19.516,19.516h73.523c1.342,0,3.613,0.922,3.613,4.169c0,0.051,0.008,183.419,0.008,183.419     C270.076,290.729,267.805,292.999,265.012,292.999z"
           fill="#FFFFFF"
           id="path30"
           style="fill:#300024;fill-opacity:1" /></g></g></g><g
     id="g32" /><g
     id="g34" /><g
     id="g36" /><g
     id="g38" /><g
     id="g40" /><g
     id="g42" /><g
     id="g44" /><g
     id="g46" /><g
     id="g48" /><g
     id="g50" /><g
     id="g52" /><g
     id="g54" /><g
     id="g56" /><g
     id="g58" /><g
     id="g60" /></svg>