<?xml version="1.0" encoding="UTF-8" standalone="no"?>
<!-- Generator: Adobe Illustrator 18.0.0, SVG Export Plug-In . SVG Version: 6.00 Build 0)  -->

<svg
   xmlns:dc="http://purl.org/dc/elements/1.1/"
   xmlns:cc="http://creativecommons.org/ns#"
   xmlns:rdf="http://www.w3.org/1999/02/22-rdf-syntax-ns#"
   xmlns:svg="http://www.w3.org/2000/svg"
   xmlns="http://www.w3.org/2000/svg"
   xmlns:sodipodi="http://sodipodi.sourceforge.net/DTD/sodipodi-0.dtd"
   xmlns:inkscape="http://www.inkscape.org/namespaces/inkscape"
   version="1.1"
   id="Capa_1"
   x="0px"
   y="0px"
   viewBox="0 0 60 60"
   style="enable-background:new 0 0 60 60;"
   xml:space="preserve"
   width="512px"
   height="512px"
   inkscape:version="0.91 r13725"
   sodipodi:docname="organigrama_c.svg"><metadata
     id="metadata39"><rdf:RDF><cc:Work
         rdf:about=""><dc:format>image/svg+xml</dc:format><dc:type
           rdf:resource="http://purl.org/dc/dcmitype/StillImage" /><dc:title /></cc:Work></rdf:RDF></metadata><defs
     id="defs37" /><sodipodi:namedview
     pagecolor="#ffffff"
     bordercolor="#666666"
     borderopacity="1"
     objecttolerance="10"
     gridtolerance="10"
     guidetolerance="10"
     inkscape:pageopacity="0"
     inkscape:pageshadow="2"
     inkscape:window-width="1920"
     inkscape:window-height="993"
     id="namedview35"
     showgrid="false"
     inkscape:zoom="0.4609375"
     inkscape:cx="-241.89831"
     inkscape:cy="256"
     inkscape:window-x="0"
     inkscape:window-y="24"
     inkscape:window-maximized="1"
     inkscape:current-layer="Capa_1" /><path
     d="m 52.222212,40.694681 0,-11.660864 -21.256029,0 0,-9.728498 c 3.806762,-0.478261 6.763282,-3.728501 6.763282,-7.662799 0,-4.2618334 -3.467631,-7.7294646 -7.729465,-7.7294646 -4.261834,0 -7.729465,3.4676312 -7.729465,7.7294646 0,3.934298 2.95652,7.184538 6.763282,7.662799 l 0,9.728498 -21.2560291,0 0,11.660864 C 3.9710264,41.172942 1.014506,44.423182 1.014506,48.35748 c 0,4.261833 3.4676312,7.729465 7.729465,7.729465 4.261834,0 7.729465,-3.467632 7.729465,-7.729465 0,-3.934298 -2.95652,-7.184538 -6.7632818,-7.662799 l 0,-9.728498 19.3236628,0 0,9.728498 c -3.806762,0.478261 -6.763282,3.728501 -6.763282,7.662799 0,4.261833 3.467631,7.729465 7.729465,7.729465 4.261834,0 7.729465,-3.467632 7.729465,-7.729465 0,-3.934298 -2.95652,-7.184538 -6.763282,-7.662799 l 0,-9.728498 19.323663,0 0,9.728498 c -3.806762,0.478261 -6.763282,3.728501 -6.763282,7.662799 0,4.261833 3.467631,7.729465 7.729465,7.729465 4.261834,0 7.729465,-3.467632 7.729465,-7.729465 0,-3.934298 -2.95652,-7.184538 -6.763282,-7.662799 z M 24.202901,11.64252 c 0,-3.1970995 2.599999,-5.7970984 5.797099,-5.7970984 3.1971,0 5.797099,2.5999989 5.797099,5.7970984 0,3.1971 -2.599999,5.797099 -5.797099,5.797099 -3.1971,0 -5.797099,-2.599999 -5.797099,-5.797099 z M 14.54107,48.35748 c 0,3.1971 -2.599999,5.797098 -5.797099,5.797098 -3.1971,0 -5.7970988,-2.599998 -5.7970988,-5.797098 0,-3.1971 2.5999988,-5.797099 5.7970988,-5.797099 3.1971,0 5.797099,2.599999 5.797099,5.797099 z m 21.256029,0 c 0,3.1971 -2.599999,5.797098 -5.797099,5.797098 -3.1971,0 -5.797099,-2.599998 -5.797099,-5.797098 0,-3.1971 2.599999,-5.797099 5.797099,-5.797099 3.1971,0 5.797099,2.599999 5.797099,5.797099 z m 15.45893,5.797098 c -3.1971,0 -5.797099,-2.599998 -5.797099,-5.797098 0,-3.1971 2.599999,-5.797099 5.797099,-5.797099 3.1971,0 5.797099,2.599999 5.797099,5.797099 0,3.1971 -2.599999,5.797098 -5.797099,5.797098 z"
     id="path3"
     style="fill:#300024;fill-opacity:1;stroke:#300024;stroke-width:0.22160155;stroke-miterlimit:4;stroke-dasharray:none;stroke-opacity:1"
     inkscape:connector-curvature="0" /><g
     id="g5" /><g
     id="g7" /><g
     id="g9" /><g
     id="g11" /><g
     id="g13" /><g
     id="g15" /><g
     id="g17" /><g
     id="g19" /><g
     id="g21" /><g
     id="g23" /><g
     id="g25" /><g
     id="g27" /><g
     id="g29" /><g
     id="g31" /><g
     id="g33" /></svg>