<?xml version="1.0" encoding="UTF-8" standalone="no"?>
<!-- Generator: Adobe Illustrator 19.1.0, SVG Export Plug-In . SVG Version: 6.00 Build 0)  -->

<svg
   xmlns:dc="http://purl.org/dc/elements/1.1/"
   xmlns:cc="http://creativecommons.org/ns#"
   xmlns:rdf="http://www.w3.org/1999/02/22-rdf-syntax-ns#"
   xmlns:svg="http://www.w3.org/2000/svg"
   xmlns="http://www.w3.org/2000/svg"
   xmlns:sodipodi="http://sodipodi.sourceforge.net/DTD/sodipodi-0.dtd"
   xmlns:inkscape="http://www.inkscape.org/namespaces/inkscape"
   version="1.1"
   id="Layer_1"
   x="0px"
   y="0px"
   viewBox="0 0 64 64"
   enable-background="new 0 0 64 64"
   xml:space="preserve"
   width="512px"
   height="512px"
   inkscape:version="0.91 r13725"
   sodipodi:docname="publicaciones_c.svg"><metadata
     id="metadata48"><rdf:RDF><cc:Work
         rdf:about=""><dc:format>image/svg+xml</dc:format><dc:type
           rdf:resource="http://purl.org/dc/dcmitype/StillImage" /></cc:Work></rdf:RDF></metadata><defs
     id="defs46" /><sodipodi:namedview
     pagecolor="#ffffff"
     bordercolor="#666666"
     borderopacity="1"
     objecttolerance="10"
     gridtolerance="10"
     guidetolerance="10"
     inkscape:pageopacity="0"
     inkscape:pageshadow="2"
     inkscape:window-width="1920"
     inkscape:window-height="993"
     id="namedview44"
     showgrid="false"
     inkscape:zoom="0.4609375"
     inkscape:cx="256"
     inkscape:cy="256"
     inkscape:window-x="0"
     inkscape:window-y="24"
     inkscape:window-maximized="1"
     inkscape:current-layer="Layer_1" /><g
     id="Text-files"
     transform="matrix(0.83882323,0,0,0.83882323,5.1576566,5.1576565)"><path
       d="m 53.979149,9.1429005 -3.9683,0 c -0.0827,0 -0.1562,0.0284 -0.233101,0.047 l 0,-4.1671004 C 49.777748,2.253 47.473148,0 44.639847,0 L 10.217251,0 C 7.3839517,0 5.0793519,2.253 5.0793519,5.0228 l 0,46.8433 c 0,2.769798 2.3045998,5.0228 5.1379001,5.0228 l 6.0367,0 0,2.267899 C 16.253952,61.8274 18.470251,64 21.195452,64 l 32.783699,0 c 2.7252,0 4.941497,-2.1726 4.941497,-4.843201 l 0,-45.170699 c -10e-7,-2.6706 -2.216299,-4.8431995 -4.941499,-4.8431995 z M 7.1110516,51.8661 l 0,-46.8433 c 0,-1.6487999 1.3938999,-2.9909999 3.1062004,-2.9909999 l 34.422596,0 c 1.712303,0 3.106201,1.3422 3.106201,2.9909999 l 0,46.8433 c 0,1.6488 -1.393898,2.9911 -3.106201,2.9911 l -34.422596,0 c -1.7123005,1e-6 -3.1062004,-1.3423 -3.1062004,-2.9911 z m 49.7777954,7.290699 c 0,1.550602 -1.3055,2.811501 -2.909698,2.811501 l -32.783699,0 c -1.6042,0 -2.9098,-1.260899 -2.9098,-2.811501 l 0,-2.267898 26.354195,0 c 2.833301,0 5.137901,-2.253002 5.137901,-5.022801 l 0,-40.7385 c 0.0769,0.0186 0.150402,0.047 0.233101,0.047 l 3.9683,0 c 1.604199,0 2.909699,1.2609 2.909699,2.8115 l 0,45.170699 z"
       id="path4"
       inkscape:connector-curvature="0"
       style="fill:#310024" /><path
       d="m 38.603149,13.2064 -22.349197,0 c -0.5615,0 -1.015901,0.4543 -1.015901,1.0158 0,0.5616 0.454401,1.0159 1.015901,1.0159 l 22.349197,0 c 0.561501,0 1.0159,-0.4543 1.0159,-1.0159 0,-0.5615 -0.454399,-1.0158 -1.0159,-1.0158 z"
       id="path6"
       inkscape:connector-curvature="0"
       style="fill:#310024" /><path
       d="m 38.603149,21.333401 -22.349197,0 c -0.5615,0 -1.015901,0.4543 -1.015901,1.015798 0,0.561501 0.454401,1.015902 1.015901,1.015902 l 22.349197,0 c 0.561501,0 1.0159,-0.454401 1.0159,-1.015902 0,-0.561498 -0.454399,-1.015798 -1.0159,-1.015798 z"
       id="path8"
       inkscape:connector-curvature="0"
       style="fill:#310024" /><path
       d="m 38.603149,29.4603 -22.349197,0 c -0.5615,0 -1.015901,0.454399 -1.015901,1.0159 0,0.561501 0.454401,1.0159 1.015901,1.0159 l 22.349197,0 c 0.561501,0 1.0159,-0.454399 1.0159,-1.0159 0,-0.561501 -0.454399,-1.0159 -1.0159,-1.0159 z"
       id="path10"
       inkscape:connector-curvature="0"
       style="fill:#310024" /><path
       d="m 28.444448,37.587299 -12.190496,0 c -0.5615,0 -1.015901,0.454399 -1.015901,1.0159 0,0.561501 0.454401,1.0159 1.015901,1.0159 l 12.190496,0 c 0.561503,0 1.015801,-0.454399 1.015801,-1.0159 0,-0.561501 -0.454298,-1.0159 -1.015801,-1.0159 z"
       id="path12"
       inkscape:connector-curvature="0"
       style="fill:#310024" /></g><g
     id="g14" /><g
     id="g16" /><g
     id="g18" /><g
     id="g20" /><g
     id="g22" /><g
     id="g24" /><g
     id="g26" /><g
     id="g28" /><g
     id="g30" /><g
     id="g32" /><g
     id="g34" /><g
     id="g36" /><g
     id="g38" /><g
     id="g40" /><g
     id="g42" /></svg>