<?xml version="1.0" encoding="UTF-8" standalone="no"?>
<!-- Generator: Adobe Illustrator 19.1.0, SVG Export Plug-In . SVG Version: 6.00 Build 0)  -->

<svg
   xmlns:dc="http://purl.org/dc/elements/1.1/"
   xmlns:cc="http://creativecommons.org/ns#"
   xmlns:rdf="http://www.w3.org/1999/02/22-rdf-syntax-ns#"
   xmlns:svg="http://www.w3.org/2000/svg"
   xmlns="http://www.w3.org/2000/svg"
   xmlns:sodipodi="http://sodipodi.sourceforge.net/DTD/sodipodi-0.dtd"
   xmlns:inkscape="http://www.inkscape.org/namespaces/inkscape"
   version="1.1"
   id="Capa_1"
   x="0px"
   y="0px"
   viewBox="0 0 481.6 481.6"
   style="enable-background:new 0 0 481.6 481.6;"
   xml:space="preserve"
   width="512px"
   height="512px"
   inkscape:version="0.91 r13725"
   sodipodi:docname="seguridad_c.svg"><metadata
     id="metadata45"><rdf:RDF><cc:Work
         rdf:about=""><dc:format>image/svg+xml</dc:format><dc:type
           rdf:resource="http://purl.org/dc/dcmitype/StillImage" /></cc:Work></rdf:RDF></metadata><defs
     id="defs43" /><sodipodi:namedview
     pagecolor="#ffffff"
     bordercolor="#666666"
     borderopacity="1"
     objecttolerance="10"
     gridtolerance="10"
     guidetolerance="10"
     inkscape:pageopacity="0"
     inkscape:pageshadow="2"
     inkscape:window-width="1920"
     inkscape:window-height="993"
     id="namedview41"
     showgrid="false"
     inkscape:zoom="0.4609375"
     inkscape:cx="-2.1694915"
     inkscape:cy="256"
     inkscape:window-x="0"
     inkscape:window-y="24"
     inkscape:window-maximized="1"
     inkscape:current-layer="Capa_1" /><g
     id="g3"
     style="stroke:#ffffff;stroke-width:5.31715712;stroke-miterlimit:0.5;stroke-dasharray:none;stroke-opacity:1;stroke-linejoin:round"
     transform="matrix(0.90220914,0,0,0.90220914,23.548062,23.54804)"><g
       id="g5"
       style="stroke:#ffffff;stroke-width:5.31715712;stroke-miterlimit:0.5;stroke-dasharray:none;stroke-opacity:1;stroke-linejoin:round"><path
         d="m 295.778,197.9 -81.2,81.2 -28.8,-28.9 c -5.3,-5.3 -13.8,-5.3 -19.1,0 -5.3,5.3 -5.3,13.8 0,19.1 l 38.4,38.4 c 2.6,2.6 6.1,4 9.5,4 3.4,0 6.9,-1.3 9.5,-4 l 90.7,-90.7 c 5.3,-5.3 5.3,-13.8 0,-19.1 -5.2,-5.3 -13.7,-5.3 -19,0 z"
         id="path7"
         style="fill:#300024;stroke:#ffffff;stroke-width:5.31715712;stroke-miterlimit:0.5;stroke-dasharray:none;stroke-opacity:1;stroke-linejoin:round"
         inkscape:connector-curvature="0" /><path
         d="m 449.378,160.2 c 0,-21.4 0,-42.7 0,-64.1 0,-9.7 -3.8,-21.8 -21.7,-24.1 -3.8,-0.5 -7.6,-0.9 -11.3,-1.4 -11.6,-1.3 -22.5,-2.6 -33.1,-5 -41.4,-9.1 -81.1,-27.6 -125.1,-58.2 -5.9,-4.1 -10.6,-7.4 -17.3,-7.4 -6.7,0 -11.6,3.4 -17.2,7.3 -58.8,40.6 -112,61.2 -167.3,64.6 -16.9,1.1 -24.2,8.9 -24.2,26.1 0,13.9 0,27.8 0,41.7 -0.1,38.5 -0.1,78.4 0.3,117.6 0.1,13.8 1.9,28.1 5.2,42.6 7.7,33.7 25.4,64.2 54.1,93.1 36.5,36.8 82.3,65.3 140.1,87.1 2.6,1 5.6,1.5 8.7,1.5 3.8,0 7.8,-0.8 11.1,-2.3 3.4,-1.5 6.8,-2.9 10.2,-4.4 14.2,-6.1 28.8,-12.4 42.9,-19.8 46.7,-24.7 81.9,-53.7 107.7,-88.7 22.7,-30.8 34.4,-61.7 35.9,-94.4 0.3,-6.5 0.5,-13.4 0.6,-21.1 0,-0.1 0,-0.3 0,-0.4 l 0.5,-65.1 c 0,-0.3 0,-0.6 0,-0.8 l 0,-1.3 -0.1,-23.1 z m -27,21.8 0,0.1 0,1.8 c 0,0.2 0,0.4 0,0.6 l -0.5,63.5 0,2 c 0,0.1 0,0.2 0,0.3 -0.1,7.6 -0.3,14.3 -0.5,20.6 -1.2,27.1 -11.2,53.1 -30.6,79.5 -23.4,31.7 -55.6,58.2 -98.6,80.9 -13.1,6.9 -27.3,13 -40.9,18.9 -3.4,1.5 -6.8,2.9 -10.2,4.4 -0.1,0 -0.2,0 -0.3,0 -53.8,-20.4 -96.3,-46.7 -129.8,-80.6 -25,-25.3 -40.4,-51.5 -46.9,-80.2 -2.9,-12.6 -4.4,-25 -4.5,-36.8 -0.4,-39.1 -0.3,-78.8 -0.3,-117.3 0,-13.7 0,-27.3 0,-41 60,-4 117.1,-26 179.7,-69.2 0.5,-0.4 1.2,-0.8 1.9,-1.3 0.6,0.4 1.3,0.9 1.9,1.3 46.3,32.3 90.4,52.7 134.7,62.5 12,2.6 24.1,4 35.8,5.4 3.1,0.4 6.1,0.7 9.1,1.1 0,20.2 0,40.5 0,60.7 l 0,22.8 z"
         id="path9"
         style="fill:#300024;stroke:#ffffff;stroke-width:5.31715712;stroke-miterlimit:0.5;stroke-dasharray:none;stroke-opacity:1;stroke-linejoin:round"
         inkscape:connector-curvature="0" /></g></g><g
     id="g11" /><g
     id="g13" /><g
     id="g15" /><g
     id="g17" /><g
     id="g19" /><g
     id="g21" /><g
     id="g23" /><g
     id="g25" /><g
     id="g27" /><g
     id="g29" /><g
     id="g31" /><g
     id="g33" /><g
     id="g35" /><g
     id="g37" /><g
     id="g39" /></svg>