<?xml version="1.0" encoding="UTF-8" standalone="no"?>
<!-- Generator: Adobe Illustrator 19.0.0, SVG Export Plug-In . SVG Version: 6.00 Build 0)  -->

<svg
   xmlns:dc="http://purl.org/dc/elements/1.1/"
   xmlns:cc="http://creativecommons.org/ns#"
   xmlns:rdf="http://www.w3.org/1999/02/22-rdf-syntax-ns#"
   xmlns:svg="http://www.w3.org/2000/svg"
   xmlns="http://www.w3.org/2000/svg"
   xmlns:sodipodi="http://sodipodi.sourceforge.net/DTD/sodipodi-0.dtd"
   xmlns:inkscape="http://www.inkscape.org/namespaces/inkscape"
   version="1.1"
   id="Capa_1"
   x="0px"
   y="0px"
   viewBox="0 0 171.643 171.643"
   style="enable-background:new 0 0 171.643 171.643;"
   xml:space="preserve"
   width="512px"
   height="512px"
   inkscape:version="0.91 r13725"
   sodipodi:docname="simplificacion_c.svg"><metadata
     id="metadata51"><rdf:RDF><cc:Work
         rdf:about=""><dc:format>image/svg+xml</dc:format><dc:type
           rdf:resource="http://purl.org/dc/dcmitype/StillImage" /><dc:title></dc:title></cc:Work></rdf:RDF></metadata><defs
     id="defs49" /><sodipodi:namedview
     pagecolor="#ffffff"
     bordercolor="#666666"
     borderopacity="1"
     objecttolerance="10"
     gridtolerance="10"
     guidetolerance="10"
     inkscape:pageopacity="0"
     inkscape:pageshadow="2"
     inkscape:window-width="1920"
     inkscape:window-height="993"
     id="namedview47"
     showgrid="false"
     inkscape:zoom="0.4609375"
     inkscape:cx="256"
     inkscape:cy="256"
     inkscape:window-x="0"
     inkscape:window-y="24"
     inkscape:window-maximized="1"
     inkscape:current-layer="Capa_1" /><g
     id="g3"
     style="fill:#300024;fill-opacity:1"><g
       id="g5"
       style="fill:#300024;fill-opacity:1"><path
         d="M85.829,103.651c-0.535,0-1.069-0.111-1.567-0.342L2.235,66.169    C0.869,65.552-0.007,64.186,0,62.686c0.007-1.5,0.895-2.851,2.268-3.46l82.027-36.131c0.98-0.431,2.087-0.431,3.067,0    l82.012,36.131c1.374,0.609,2.261,1.96,2.268,3.46c0.007,1.5-0.869,2.866-2.235,3.482L87.396,103.31    C86.898,103.54,86.363,103.651,85.829,103.651z M13.124,62.753l72.705,32.924l72.69-32.924l-72.69-32.025L13.124,62.753z"
         fill="#FFFFFF"
         id="path7"
         style="fill:#300024;fill-opacity:1" /></g><g
       id="g9"
       style="fill:#300024;fill-opacity:1"><path
         d="M85.829,126.016c-0.535,0-1.069-0.111-1.567-0.342L2.235,88.526l3.133-6.92l80.46,36.436    l80.442-36.436l3.141,6.92l-82.012,37.149C86.898,125.905,86.363,126.016,85.829,126.016z"
         fill="#FFFFFF"
         id="path11"
         style="fill:#300024;fill-opacity:1" /></g><g
       id="g13"
       style="fill:#300024;fill-opacity:1"><path
         d="M85.829,148.871c-0.535,0-1.069-0.111-1.567-0.342L2.235,111.381l3.133-6.92l80.46,36.436    l80.442-36.436l3.141,6.92L87.399,148.53C86.898,148.76,86.363,148.871,85.829,148.871z"
         fill="#FFFFFF"
         id="path15"
         style="fill:#300024;fill-opacity:1" /></g></g><g
     id="g17" /><g
     id="g19" /><g
     id="g21" /><g
     id="g23" /><g
     id="g25" /><g
     id="g27" /><g
     id="g29" /><g
     id="g31" /><g
     id="g33" /><g
     id="g35" /><g
     id="g37" /><g
     id="g39" /><g
     id="g41" /><g
     id="g43" /><g
     id="g45" /></svg>