<?xml version="1.0" encoding="UTF-8" standalone="no"?>
<!-- Generator: Adobe Illustrator 19.0.0, SVG Export Plug-In . SVG Version: 6.00 Build 0)  -->

<svg
   xmlns:dc="http://purl.org/dc/elements/1.1/"
   xmlns:cc="http://creativecommons.org/ns#"
   xmlns:rdf="http://www.w3.org/1999/02/22-rdf-syntax-ns#"
   xmlns:svg="http://www.w3.org/2000/svg"
   xmlns="http://www.w3.org/2000/svg"
   xmlns:sodipodi="http://sodipodi.sourceforge.net/DTD/sodipodi-0.dtd"
   xmlns:inkscape="http://www.inkscape.org/namespaces/inkscape"
   version="1.1"
   id="Layer_1"
   x="0px"
   y="0px"
   viewBox="0 0 9.0625 9.0625"
   xml:space="preserve"
   width="16"
   height="16"
   inkscape:version="0.91 r13725"
   sodipodi:docname="submenu.svg"><metadata
     id="metadata3725"><rdf:RDF><cc:Work
         rdf:about=""><dc:format>image/svg+xml</dc:format><dc:type
           rdf:resource="http://purl.org/dc/dcmitype/StillImage" /><dc:title></dc:title></cc:Work></rdf:RDF></metadata><defs
     id="defs3723" /><sodipodi:namedview
     pagecolor="#ffffff"
     bordercolor="#666666"
     borderopacity="1"
     objecttolerance="10"
     gridtolerance="10"
     guidetolerance="10"
     inkscape:pageopacity="0"
     inkscape:pageshadow="2"
     inkscape:window-width="1920"
     inkscape:window-height="993"
     id="namedview3721"
     showgrid="false"
     inkscape:zoom="29.5"
     inkscape:cx="15.710986"
     inkscape:cy="11.286571"
     inkscape:window-x="0"
     inkscape:window-y="24"
     inkscape:window-maximized="1"
     inkscape:current-layer="Layer_1" /><g
     id="g3683"
     style="fill:#ffffff"
     transform="matrix(-0.03119624,0,0,-0.03110585,9.059058,8.9308848)"><path
       d="m 255,110 c -19.299,0 -35,15.701 -35,35 0,19.299 15.701,35 35,35 19.299,0 35,-15.701 35,-35 0,-19.299 -15.701,-35 -35,-35 z"
       id="path3685"
       style="fill:#ffffff"
       inkscape:connector-curvature="0" /><path
       d="m 35,110 c -19.299,0 -35,15.701 -35,35 0,19.299 15.701,35 35,35 19.299,0 35,-15.701 35,-35 0,-19.299 -15.701,-35 -35,-35 z"
       id="path3687"
       style="fill:#ffffff"
       inkscape:connector-curvature="0" /><path
       d="m 145,110 c -19.299,0 -35,15.701 -35,35 0,19.299 15.701,35 35,35 19.299,0 35,-15.701 35,-35 0,-19.299 -15.701,-35 -35,-35 z"
       id="path3689"
       style="fill:#ffffff"
       inkscape:connector-curvature="0" /></g><g
     id="g3691"
     transform="translate(0,-280.93751)" /><g
     id="g3693"
     transform="translate(0,-280.93751)" /><g
     id="g3695"
     transform="translate(0,-280.93751)" /><g
     id="g3697"
     transform="translate(0,-280.93751)" /><g
     id="g3699"
     transform="translate(0,-280.93751)" /><g
     id="g3701"
     transform="translate(0,-280.93751)" /><g
     id="g3703"
     transform="translate(0,-280.93751)" /><g
     id="g3705"
     transform="translate(0,-280.93751)" /><g
     id="g3707"
     transform="translate(0,-280.93751)" /><g
     id="g3709"
     transform="translate(0,-280.93751)" /><g
     id="g3711"
     transform="translate(0,-280.93751)" /><g
     id="g3713"
     transform="translate(0,-280.93751)" /><g
     id="g3715"
     transform="translate(0,-280.93751)" /><g
     id="g3717"
     transform="translate(0,-280.93751)" /><g
     id="g3719"
     transform="translate(0,-280.93751)" /></svg>